<svg width="4000" height="2000" viewBox="0 0 4000 2000" fill="none" xmlns="http://www.w3.org/2000/svg">
<g clip-path="url(#clip0)">
<rect width="4000" height="2000" fill="url(#paint0_linear)"/>
<path fill-rule="evenodd" clip-rule="evenodd" d="M4000 1107.8V2000H0V1107.8C182.142 1099.81 314.131 1029.89 448.695 958.6L448.696 958.6L448.697 958.599C597.752 879.636 749.966 799 977 799C1196.09 799 1342.1 878.612 1486.03 957.089L1486.03 957.091C1623.59 1032.1 1759.24 1106.07 1955 1108.5C2160.9 1111.06 2303.3 1035.63 2448.7 958.6C2597.75 879.637 2749.97 799 2977 799C3196.09 799 3342.1 878.612 3486.03 957.089L3486.03 957.091C3623.59 1032.1 3759.25 1106.07 3955 1108.5C3970.34 1108.69 3985.33 1108.45 4000 1107.8Z" fill="#C4C4C4"/>
<path fill-rule="evenodd" clip-rule="evenodd" d="M4000 1107.8V2000H0V1107.8C182.142 1099.81 314.131 1029.89 448.695 958.6L448.696 958.6L448.697 958.599C597.752 879.636 749.966 799 977 799C1196.09 799 1342.1 878.612 1486.03 957.089L1486.03 957.091C1623.59 1032.1 1759.24 1106.07 1955 1108.5C2160.9 1111.06 2303.3 1035.63 2448.7 958.6C2597.75 879.637 2749.97 799 2977 799C3196.09 799 3342.1 878.612 3486.03 957.089L3486.03 957.091C3623.59 1032.1 3759.25 1106.07 3955 1108.5C3970.34 1108.69 3985.33 1108.45 4000 1107.8Z" fill="url(#paint1_linear)"/>
<mask id="path-2-outside-1" maskUnits="userSpaceOnUse" x="115.54" y="200.778" width="3793" height="1557" fill="black">
<rect fill="white" x="115.54" y="200.778" width="3793" height="1557"/>
<path d="M240.874 438.632L163.329 457.606C155.985 459.403 148.235 457.235 142.889 451.889C131.249 440.249 136.355 420.391 152.166 415.81L197.242 402.748C202.38 401.259 207.218 398.916 211.721 396.03C223.291 388.613 240.311 379 248.5 379C275.401 379 289.358 341 316.259 341H440C479.582 341 528.679 352.072 567.578 344.75L570.709 344.161C581.817 342.07 593.205 341.941 604.358 343.781L684.5 357L750.764 373.566C765.2 377.175 780.025 379 794.905 379H829.155C855.729 379 881.981 373.181 906.065 361.951L932.779 349.496C944.781 343.9 957.862 341 971.105 341H1009.76C1016.15 341 1022.12 344.216 1025.63 349.557C1033.94 362.191 1024.88 379 1009.76 379H963.703C955.405 379 947.278 381.356 940.266 385.793L861.602 435.576C852.822 441.132 847.5 450.798 847.5 461.189V463.25C847.5 478.852 860.148 491.5 875.75 491.5H882C894.15 491.5 904 501.35 904 513.5C904 525.65 913.85 535.5 926 535.5H937.234C946.048 535.5 954.501 531.999 960.734 525.766L995 491.5C1027.12 461.308 1069.54 444.5 1113.62 444.5H1142.5C1151.04 444.5 1158.01 445.128 1163.66 446.155C1182.01 449.491 1189.9 469.362 1197.41 486.436L1205.27 504.287C1207.07 508.384 1208 512.811 1208 517.288C1208 538.859 1187.25 554.36 1166.56 548.241L1132.96 538.298C1126.79 536.475 1120.23 536.542 1114.1 538.492L1102.14 542.304C1080.18 549.295 1076.95 579.014 1096.88 590.565L1107.88 596.939C1122.2 605.236 1120.96 626.301 1105.77 632.862C1101.1 634.879 1095.83 635.054 1091.04 633.351L1071.82 626.526C1054.59 620.405 1035.67 621.068 1018.91 628.379L951 658L885.922 698.15C834.395 729.94 795.32 786.01 803.5 846C803.568 846.5 803.617 846.994 803.646 847.483C805.222 873.593 765.707 858.372 756.953 833.723C754.675 827.309 751.106 821.431 746.466 816.451L740.267 809.798C722.557 790.793 697.747 780 671.77 780H641.093C608.62 780 579.313 799.469 566.726 829.403L558.243 849.575C551.097 866.569 554.584 886.175 567.152 899.663L569.516 902.2C580.486 913.973 597.285 918.322 612.591 913.352L644.656 902.939C661.893 897.342 678.508 913.002 673.939 930.539C671.095 941.459 676.615 952.826 686.956 957.343L703.939 964.761C709.569 967.22 714.548 970.957 718.481 975.677L740.372 1001.95C753.13 1017.26 742.244 1040.5 722.315 1040.5C716.034 1040.5 710.015 1037.99 705.599 1033.52L685.978 1013.67C674.855 1002.42 660.875 994.548 646.086 988.926C622.643 980.015 594.803 965.86 587.5 949.5C565.24 899.639 478.644 922.018 442.849 880.782L440 877.5L379.763 799.71C374.788 793.286 364.5 796.804 364.5 804.929C364.5 814.177 351.837 816.805 348.157 808.32L303.117 704.478C296.967 690.299 301.825 673.75 314.664 665.146L349.808 641.591C372.739 626.223 386.5 600.434 386.5 572.83V552.921C386.5 514.438 367.68 478.386 336.106 456.385C308.384 437.068 273.695 430.601 240.874 438.632Z"/>
<path d="M760.339 336.541L718.484 321.194C714.89 319.876 712.5 316.455 712.5 312.626C712.5 307.586 716.586 303.5 721.626 303.5H854.908C867.13 303.5 876.085 315.006 873.083 326.855C870.976 335.174 863.49 341 854.908 341H785.453C776.885 341 768.383 339.491 760.339 336.541Z"/>
<path d="M1108.87 341H1078.33C1075.2 341 1072.16 339.963 1069.68 338.05C1060.05 330.621 1063.66 315.316 1075.59 312.961L1117.25 304.733C1121.38 303.919 1125.62 303.89 1129.76 304.649L1164.14 310.955C1189.55 315.616 1208 337.759 1208 363.589V368.484C1208 387.758 1196.09 405.026 1178.07 411.873C1165.34 416.711 1151.2 415.505 1138.58 410.373C1125.97 405.241 1110.74 400.5 1098.5 400.5C1085.25 400.5 1098.77 394.209 1116.1 387.878C1129.81 382.868 1136.57 367.146 1130.04 354.089C1126.03 346.067 1117.83 341 1108.87 341Z"/>
<path d="M1148.65 284.461L1119.79 268.368C1114.08 265.187 1116.34 256.5 1122.87 256.5C1123.29 256.5 1123.69 256.462 1124.1 256.38C1176.69 245.841 1288.72 225 1321 225C1361.5 225 1453 234.5 1465.5 225C1478 215.5 1703.5 225 1744.5 225C1772.01 225 1751.27 254.542 1730.88 276.462C1723.67 284.21 1713.97 289.052 1703.58 291.029L1663.55 298.641C1650.32 301.158 1642.67 315.133 1647.7 327.632C1653.35 341.688 1643 357 1627.85 357H1565.5C1552.48 357 1508.21 367.759 1478.81 375.455C1469.94 377.776 1461.39 381.121 1453.25 385.328L1402.31 411.635C1385.54 420.299 1365.17 417.801 1350.98 405.34L1346.42 401.333C1331.85 388.528 1328.93 366.94 1339.6 350.731L1340.34 349.603C1344.03 343.991 1346 337.42 1346 330.702V318.227C1346 309.596 1340.07 302.096 1331.67 300.109L1308.2 294.555C1298.96 292.368 1297.59 279.78 1306.15 275.663C1315.81 271.017 1312.51 256.5 1301.78 256.5H1235.09C1231.73 256.5 1228.4 257.171 1225.3 258.473L1161.7 285.186C1157.47 286.962 1152.66 286.695 1148.65 284.461Z"/>
<path d="M763.869 1155.72L793.787 1108.75C799.528 1099.74 798.559 1088 791.416 1080.05C781.539 1069.06 783.96 1051.82 796.482 1043.97L832.898 1021.15C842.44 1015.17 853.472 1012 864.732 1012H927.293C969.148 1012 1009.72 1026.43 1042.18 1052.85L1118.18 1114.71C1134.25 1127.78 1152.65 1137.68 1172.42 1143.88L1293.28 1181.75C1341.92 1196.99 1366.59 1265.2 1321 1288C1310.61 1293.19 1308.77 1315.61 1310.56 1340.95C1313.19 1378.17 1291.74 1414.57 1255.47 1423.34C1239.08 1427.31 1224.75 1437.22 1215.26 1451.16L1136.66 1566.67C1128 1579.39 1116.54 1589.95 1103.17 1597.55L1067.36 1617.9C1048.6 1628.56 1039.41 1650.55 1045 1671.38L1048.69 1685.13C1058.08 1720.06 1021.14 1749.29 989.3 1732.14L974.889 1724.37C961.907 1717.38 957.45 1700.92 965.127 1688.33C971.463 1677.94 969.65 1664.53 960.783 1656.2L941.964 1638.51C931.681 1628.84 925.312 1615.78 924.07 1601.72C916.37 1514.6 904 1371.89 904 1360.5C904 1353.18 885.047 1340.26 863.933 1328.3C837.33 1313.24 813.017 1294.08 794.926 1269.44L766.34 1230.49C757.998 1219.13 753.5 1205.4 753.5 1191.3C753.5 1178.7 757.097 1166.35 763.869 1155.72Z"/>
<path d="M1672.13 846.773C1692.36 828.878 1711.54 811.216 1719.5 802L1734.69 788.631C1741.22 782.885 1748.16 777.613 1755.44 772.858L1773.3 761.203C1801.49 742.8 1834.43 733 1868.09 733H1894.34C1903 733 1911.56 731.056 1919.37 727.312L1946.87 714.137C1964.1 705.879 1984.66 714.778 1990.43 732.997C1993.6 742.998 2001.55 750.76 2011.62 753.692L2082.56 774.342C2094.55 777.832 2107.49 774.514 2116.31 765.686C2126.36 755.641 2141.57 752.849 2154.52 758.67L2178.36 769.381C2193.64 776.246 2210.83 777.576 2226.99 773.145L2298.86 753.429C2308.39 750.813 2315 742.147 2315 732.261C2315 721.903 2307.76 712.955 2297.63 710.794L2256.76 702.076C2246.99 699.991 2240 691.355 2240 681.359C2240 669.986 2231.02 660.643 2219.66 660.192L2189.96 659.012C2176.06 658.46 2164.5 669.572 2164.5 683.475V684.798C2164.5 693.204 2159.78 700.898 2152.28 704.705C2141.54 710.164 2128.39 706.107 2122.6 695.538L2104.25 662.1C2102.75 659.371 2101.05 656.758 2099.16 654.286L2061.66 605.279C2055.7 597.495 2045.18 594.821 2036.23 598.816C2019.94 606.09 2019.41 629.024 2035.35 637.04L2056.58 647.715C2069.43 654.179 2071.97 671.44 2061.53 681.332L2059.46 683.293C2047.01 695.08 2026.5 686.256 2026.5 669.112C2026.5 662.223 2022.87 655.843 2016.95 652.324L1994.08 638.738C1971.79 625.494 1943.83 626.465 1922.51 641.223L1874.66 674.348C1869.24 678.104 1864.25 682.451 1859.78 687.308L1846.93 701.27C1837.45 711.572 1823.95 717.224 1809.96 716.744L1800.86 716.432C1772.94 715.475 1753.99 687.673 1763.31 661.339L1771.01 639.593C1775.24 627.615 1789.04 622.089 1800.38 627.832L1801.73 628.515C1810.23 632.821 1820.59 630.28 1826.14 622.533L1841.71 600.783C1844.34 597.109 1841.72 592 1837.2 592C1831.52 592 1829.5 584.484 1834.42 581.642L1943.28 518.72C1952.38 513.461 1963.2 512.067 1973.34 514.851L2011.6 525.362C2035.72 531.989 2061.21 531.74 2085.2 524.643L2125.3 512.777C2130.4 511.27 2135.2 508.908 2139.5 505.791L2156.57 493.421C2177.26 478.429 2174.67 446.835 2151.82 435.409L2139.78 429.388C2135.62 427.312 2133 423.067 2133 418.425C2133 409.802 2124.33 403.875 2116.3 407.003L2083.6 419.73C2073.42 423.696 2065.56 432.048 2062.23 442.46L2060.78 446.987C2055.38 463.877 2038.84 474.638 2021.21 472.74C1985.29 468.874 1975.24 421.344 2006.52 403.266L2048.5 379L2176.73 322.009C2181.07 320.079 2185.99 319.916 2190.46 321.554L2229.65 335.944C2241.04 340.126 2238.04 357 2225.91 357C2216.58 357 2211.59 367.982 2217.73 375.006L2233.5 393.059C2237.63 397.787 2243.6 400.5 2249.88 400.5H2292.84C2307.48 400.5 2321.97 397.706 2335.65 392.486C2375.3 377.355 2432.25 357 2447 357H2507.32C2518.99 357 2525.97 344.035 2519.56 334.29C2514.4 326.449 2517.84 315.847 2526.62 312.528L2531.85 310.552C2542.02 306.706 2553.35 312.106 2556.77 322.432L2563.94 344.103C2570.23 363.078 2591.13 372.914 2609.76 365.662L2616.41 363.071C2625.81 359.411 2632 350.356 2632 340.268C2632 328.071 2640.98 317.736 2653.06 316.037L2880.85 283.984C2886.52 283.186 2889.94 290.058 2885.9 294.105C2882.26 297.744 2884.63 303.974 2889.76 304.274L3519 341L3755.85 341C3762.89 341 3769.55 344.225 3773.91 349.753L3787.17 366.539C3796.16 377.912 3785.9 394.271 3771.75 391.135L3763.4 389.285C3750.44 386.413 3741.96 402.461 3751.63 411.553C3758.7 418.197 3756.31 429.954 3747.22 433.319L3729.17 439.997C3721.65 442.781 3713.21 441.311 3707.07 436.147L3706.17 435.397C3699.48 429.764 3689.96 428.962 3682.41 433.394C3672.15 439.418 3669.09 452.836 3675.71 462.717L3690.7 485.088C3693.5 489.268 3695 494.187 3695 499.219C3695 521.834 3667.66 533.159 3651.67 517.168L3636.1 501.605C3629.63 495.135 3626 486.36 3626 477.21V472.69C3626 455.425 3616.21 439.653 3600.74 431.993L3598.8 431.034C3584.23 423.822 3567.03 424.321 3552.91 432.364L3526.88 447.186C3511.56 455.912 3494.23 460.5 3476.59 460.5H3423.74C3413.36 460.5 3404.06 466.916 3400.37 476.62C3394.16 492.98 3406.24 510.5 3423.74 510.5H3468.06C3489.66 510.5 3509.29 523.073 3518.31 542.697L3522.81 552.465C3532.91 574.421 3523.58 600.423 3501.82 610.944C3475.63 623.607 3468.51 657.628 3487.43 679.728L3499.74 694.111C3502.17 696.943 3503.5 700.549 3503.5 704.277C3503.5 716.664 3489.78 724.13 3479.38 717.405L3401.51 667.057C3392.83 661.444 3381.83 660.837 3372.58 665.46C3357.05 673.226 3351.68 692.748 3361.06 707.365L3410.93 785.097C3432.79 819.179 3424 864.429 3390.97 887.848L3378.02 897.026C3357.66 911.46 3330.14 910.411 3310.94 894.469L3300.6 885.883C3294.22 880.586 3285.77 878.485 3277.65 880.177C3256.92 884.497 3248.84 909.797 3263.23 925.336L3314.18 980.349C3329.02 996.37 3324.74 1022.09 3305.5 1032.43C3296.08 1037.5 3284.8 1037.74 3275.16 1033.08L3214.67 1003.84C3206.14 999.708 3195.86 1002.91 3191.17 1011.15C3184.06 1023.68 3165.85 1023.2 3159.41 1010.31L3133.33 958.167C3129.51 950.522 3123.76 944.006 3116.65 939.264L3075.59 911.895C3044.6 891.232 3004.01 892.099 2973.92 914.065L2955.93 927.2C2939.74 939.025 2931.63 958.996 2934.99 978.765L2941.78 1018.66C2943.73 1030.08 2934.93 1040.5 2923.34 1040.5C2917.46 1040.5 2911.92 1037.73 2908.39 1033.03L2830.87 929.885C2805.42 896.026 2768.96 872.102 2727.77 862.235L2660 846L2536.74 803.409C2510.49 794.337 2485.84 820.539 2496.49 846.191C2503.57 863.215 2523.46 870.837 2540.1 862.897L2546.6 859.791C2563.41 851.773 2583.53 856.73 2594.68 871.635L2598.02 876.096C2615.51 899.463 2607 933.005 2580.48 945.205L2532.33 967.361C2495.16 984.462 2451.12 973.921 2425.73 941.847L2321.03 809.62C2317.22 804.807 2311.42 802 2305.28 802C2289.29 802 2279.7 819.78 2288.5 833.14L2392.43 991.019C2412.76 1021.91 2447.26 1040.5 2484.24 1040.5H2527.01C2531.77 1040.5 2536.29 1042.57 2539.4 1046.16C2545.46 1053.18 2544.5 1063.82 2537.27 1069.64L2401.45 1178.86C2375.72 1199.55 2364.88 1233.63 2373.94 1265.38L2387.32 1312.32C2392.39 1330.08 2382.07 1348.59 2364.3 1353.62C2349.92 1357.69 2340 1370.81 2340 1385.76V1392.41C2340 1402.17 2336.62 1411.62 2330.44 1419.17L2259.5 1505.71C2246.7 1521.33 2230.22 1533.5 2211.54 1541.15C2150.57 1566.11 2080.82 1537.98 2054.24 1477.7L2009.32 1375.84C2001.28 1357.6 2007.19 1336.23 2023.46 1324.72C2038.37 1314.17 2044.73 1295.18 2039.18 1277.78L2026.5 1238C2024.49 1232.12 2016.83 1215.43 2006.99 1194.76C1977.31 1132.42 1913.86 1093.5 1844.82 1093.5H1817.09C1781.79 1093.5 1747.23 1083.3 1717.84 1063.74C1676.98 1036.56 1631.05 1005.27 1622 996.5C1616.19 990.87 1614.55 974.649 1615 955.776C1616.02 913.03 1640.1 875.104 1672.13 846.773Z"/>
<path d="M2430.41 1433.64L2445.23 1368.3C2446.32 1363.51 2449.99 1359.73 2454.75 1358.52L2462.94 1356.42C2474.36 1353.5 2481.89 1368.02 2472.91 1375.67C2470.43 1377.78 2469 1380.88 2469 1384.14V1437.96C2469 1448.75 2460.25 1457.5 2449.46 1457.5C2436.93 1457.5 2427.64 1445.87 2430.41 1433.64Z"/>
<path d="M3263.42 1200.8L3205.4 1174.66C3201.55 1172.92 3198.28 1170.11 3196 1166.56C3183.72 1147.46 3205.11 1124.63 3224.97 1135.64L3280.62 1166.52C3286.72 1169.9 3290.5 1176.33 3290.5 1183.3C3290.5 1197.23 3276.12 1206.52 3263.42 1200.8Z"/>
<path d="M3343.5 1191C3336.27 1191 3331.26 1186.08 3327.86 1178.91C3316.2 1154.3 3338.66 1129.03 3364.6 1120.75L3396.33 1110.63C3422.88 1102.15 3450 1121.97 3450 1149.84C3450 1172.57 3431.57 1191 3408.84 1191H3343.5Z"/>
<path d="M3503.5 1184.91V1113.86C3503.5 1111.06 3504.59 1108.38 3506.53 1106.37C3512.18 1100.54 3522.01 1102.83 3524.5 1110.56L3546.3 1178.18C3550.2 1190.26 3543.06 1203.11 3530.75 1206.19C3516.91 1209.65 3503.5 1199.18 3503.5 1184.91Z"/>
<path d="M3436.24 1246.64C3411.08 1254.04 3370.58 1265.78 3365.5 1266.5C3343.23 1269.68 3354.36 1228.1 3376.61 1224.77L3429.65 1216.86C3441.21 1215.13 3450.36 1226.5 3446.19 1237.43C3444.5 1241.88 3440.82 1245.3 3436.24 1246.64Z"/>
<path d="M3580.81 1176.22L3582.87 1174.67C3596.2 1164.66 3613 1173.24 3613 1189.91C3613 1198.98 3607.39 1207.19 3598.69 1209.78C3592.77 1211.55 3586.84 1213 3583.5 1213C3579.83 1213 3576.21 1206.98 3573.35 1200.12C3569.75 1191.5 3573.34 1181.83 3580.81 1176.22Z"/>
<path d="M3645.95 1189.47L3642.76 1164.86C3642.36 1161.76 3644.78 1159 3647.91 1159C3648.63 1159 3649.34 1159.15 3650 1159.44L3879.37 1259.73C3892.2 1265.34 3890.38 1284.08 3876.71 1287.12C3872.75 1288 3868.61 1287.18 3865.28 1284.86L3826.56 1257.81C3814.15 1249.15 3799.38 1244.5 3784.25 1244.5H3744.88C3735.18 1244.5 3726.66 1238.07 3724 1228.75C3721.34 1219.43 3712.82 1213 3703.12 1213H3672.73C3659.16 1213 3647.69 1202.93 3645.95 1189.47Z"/>
<path d="M3516.48 1534.15L3450.55 1546.1C3397.99 1555.62 3351.62 1510.72 3359.44 1457.88C3362.95 1434.21 3377.12 1413.46 3397.89 1401.58L3527.62 1327.37C3537.93 1321.47 3550.42 1320.76 3561.34 1325.46C3574.85 1331.28 3590.52 1328.73 3601.49 1318.92L3626.54 1296.51C3632.04 1291.6 3639.83 1290.19 3646.7 1292.86L3674.07 1303.52C3680.57 1306.05 3680.68 1315.22 3674.23 1317.9C3668.76 1320.18 3667.77 1327.51 3672.44 1331.17L3698.04 1351.2C3709.83 1360.43 3726.9 1358.2 3735.92 1346.25L3738.16 1343.27C3754.06 1322.2 3787.41 1329.98 3792.36 1355.91L3793.64 1362.62C3795.16 1370.6 3799.53 1377.75 3805.94 1382.75L3829.78 1401.33C3851.37 1418.16 3864 1444.01 3864 1471.39C3864 1502.76 3847.45 1531.8 3820.5 1547.86C3763.92 1581.57 3695.11 1622.89 3692 1626C3689.47 1628.53 3660.56 1600.81 3630.92 1570.9C3601 1540.71 3558.3 1526.57 3516.48 1534.15Z"/>
<path d="M3484.6 1239.14C3493.25 1244.98 3488.7 1258.51 3478.28 1257.93C3470.61 1257.51 3466.1 1249.12 3469.97 1242.48C3472.96 1237.35 3479.67 1235.82 3484.6 1239.14Z"/>
</mask>
<g filter="url(#filter0_i)">
<path d="M240.874 438.632L163.329 457.606C155.985 459.403 148.235 457.235 142.889 451.889C131.249 440.249 136.355 420.391 152.166 415.81L197.242 402.748C202.38 401.259 207.218 398.916 211.721 396.03C223.291 388.613 240.311 379 248.5 379C275.401 379 289.358 341 316.259 341H440C479.582 341 528.679 352.072 567.578 344.75L570.709 344.161C581.817 342.07 593.205 341.941 604.358 343.781L684.5 357L750.764 373.566C765.2 377.175 780.025 379 794.905 379H829.155C855.729 379 881.981 373.181 906.065 361.951L932.779 349.496C944.781 343.9 957.862 341 971.105 341H1009.76C1016.15 341 1022.12 344.216 1025.63 349.557C1033.94 362.191 1024.88 379 1009.76 379H963.703C955.405 379 947.278 381.356 940.266 385.793L861.602 435.576C852.822 441.132 847.5 450.798 847.5 461.189V463.25C847.5 478.852 860.148 491.5 875.75 491.5H882C894.15 491.5 904 501.35 904 513.5C904 525.65 913.85 535.5 926 535.5H937.234C946.048 535.5 954.501 531.999 960.734 525.766L995 491.5C1027.12 461.308 1069.54 444.5 1113.62 444.5H1142.5C1151.04 444.5 1158.01 445.128 1163.66 446.155C1182.01 449.491 1189.9 469.362 1197.41 486.436L1205.27 504.287C1207.07 508.384 1208 512.811 1208 517.288C1208 538.859 1187.25 554.36 1166.56 548.241L1132.96 538.298C1126.79 536.475 1120.23 536.542 1114.1 538.492L1102.14 542.304C1080.18 549.295 1076.95 579.014 1096.88 590.565L1107.88 596.939C1122.2 605.236 1120.96 626.301 1105.77 632.862C1101.1 634.879 1095.83 635.054 1091.04 633.351L1071.82 626.526C1054.59 620.405 1035.67 621.068 1018.91 628.379L951 658L885.922 698.15C834.395 729.94 795.32 786.01 803.5 846C803.568 846.5 803.617 846.994 803.646 847.483C805.222 873.593 765.707 858.372 756.953 833.723C754.675 827.309 751.106 821.431 746.466 816.451L740.267 809.798C722.557 790.793 697.747 780 671.77 780H641.093C608.62 780 579.313 799.469 566.726 829.403L558.243 849.575C551.097 866.569 554.584 886.175 567.152 899.663L569.516 902.2C580.486 913.973 597.285 918.322 612.591 913.352L644.656 902.939C661.893 897.342 678.508 913.002 673.939 930.539C671.095 941.459 676.615 952.826 686.956 957.343L703.939 964.761C709.569 967.22 714.548 970.957 718.481 975.677L740.372 1001.95C753.13 1017.26 742.244 1040.5 722.315 1040.5C716.034 1040.5 710.015 1037.99 705.599 1033.52L685.978 1013.67C674.855 1002.42 660.875 994.548 646.086 988.926C622.643 980.015 594.803 965.86 587.5 949.5C565.24 899.639 478.644 922.018 442.849 880.782L440 877.5L379.763 799.71C374.788 793.286 364.5 796.804 364.5 804.929C364.5 814.177 351.837 816.805 348.157 808.32L303.117 704.478C296.967 690.299 301.825 673.75 314.664 665.146L349.808 641.591C372.739 626.223 386.5 600.434 386.5 572.83V552.921C386.5 514.438 367.68 478.386 336.106 456.385C308.384 437.068 273.695 430.601 240.874 438.632Z" fill="#51CD19"/>
<path d="M760.339 336.541L718.484 321.194C714.89 319.876 712.5 316.455 712.5 312.626C712.5 307.586 716.586 303.5 721.626 303.5H854.908C867.13 303.5 876.085 315.006 873.083 326.855C870.976 335.174 863.49 341 854.908 341H785.453C776.885 341 768.383 339.491 760.339 336.541Z" fill="#51CD19"/>
<path d="M1108.87 341H1078.33C1075.2 341 1072.16 339.963 1069.68 338.05C1060.05 330.621 1063.66 315.316 1075.59 312.961L1117.25 304.733C1121.38 303.919 1125.62 303.89 1129.76 304.649L1164.14 310.955C1189.55 315.616 1208 337.759 1208 363.589V368.484C1208 387.758 1196.09 405.026 1178.07 411.873C1165.34 416.711 1151.2 415.505 1138.58 410.373C1125.97 405.241 1110.74 400.5 1098.5 400.5C1085.25 400.5 1098.77 394.209 1116.1 387.878C1129.81 382.868 1136.57 367.146 1130.04 354.089C1126.03 346.067 1117.83 341 1108.87 341Z" fill="#51CD19"/>
<path d="M1148.65 284.461L1119.79 268.368C1114.08 265.187 1116.34 256.5 1122.87 256.5C1123.29 256.5 1123.69 256.462 1124.1 256.38C1176.69 245.841 1288.72 225 1321 225C1361.5 225 1453 234.5 1465.5 225C1478 215.5 1703.5 225 1744.5 225C1772.01 225 1751.27 254.542 1730.88 276.462C1723.67 284.21 1713.97 289.052 1703.58 291.029L1663.55 298.641C1650.32 301.158 1642.67 315.133 1647.7 327.632C1653.35 341.688 1643 357 1627.85 357H1565.5C1552.48 357 1508.21 367.759 1478.81 375.455C1469.94 377.776 1461.39 381.121 1453.25 385.328L1402.31 411.635C1385.54 420.299 1365.17 417.801 1350.98 405.34L1346.42 401.333C1331.85 388.528 1328.93 366.94 1339.6 350.731L1340.34 349.603C1344.03 343.991 1346 337.42 1346 330.702V318.227C1346 309.596 1340.07 302.096 1331.67 300.109L1308.2 294.555C1298.96 292.368 1297.59 279.78 1306.15 275.663C1315.81 271.017 1312.51 256.5 1301.78 256.5H1235.09C1231.73 256.5 1228.4 257.171 1225.3 258.473L1161.7 285.186C1157.47 286.962 1152.66 286.695 1148.65 284.461Z" fill="#51CD19"/>
<path d="M763.869 1155.72L793.787 1108.75C799.528 1099.74 798.559 1088 791.416 1080.05C781.539 1069.06 783.96 1051.82 796.482 1043.97L832.898 1021.15C842.44 1015.17 853.472 1012 864.732 1012H927.293C969.148 1012 1009.72 1026.43 1042.18 1052.85L1118.18 1114.71C1134.25 1127.78 1152.65 1137.68 1172.42 1143.88L1293.28 1181.75C1341.92 1196.99 1366.59 1265.2 1321 1288C1310.61 1293.19 1308.77 1315.61 1310.56 1340.95C1313.19 1378.17 1291.74 1414.57 1255.47 1423.34C1239.08 1427.31 1224.75 1437.22 1215.26 1451.16L1136.66 1566.67C1128 1579.39 1116.54 1589.95 1103.17 1597.55L1067.36 1617.9C1048.6 1628.56 1039.41 1650.55 1045 1671.38L1048.69 1685.13C1058.08 1720.06 1021.14 1749.29 989.3 1732.14L974.889 1724.37C961.907 1717.38 957.45 1700.92 965.127 1688.33C971.463 1677.94 969.65 1664.53 960.783 1656.2L941.964 1638.51C931.681 1628.84 925.312 1615.78 924.07 1601.72C916.37 1514.6 904 1371.89 904 1360.5C904 1353.18 885.047 1340.26 863.933 1328.3C837.33 1313.24 813.017 1294.08 794.926 1269.44L766.34 1230.49C757.998 1219.13 753.5 1205.4 753.5 1191.3C753.5 1178.7 757.097 1166.35 763.869 1155.72Z" fill="#51CD19"/>
<path d="M1672.13 846.773C1692.36 828.878 1711.54 811.216 1719.5 802L1734.69 788.631C1741.22 782.885 1748.16 777.613 1755.44 772.858L1773.3 761.203C1801.49 742.8 1834.43 733 1868.09 733H1894.34C1903 733 1911.56 731.056 1919.37 727.312L1946.87 714.137C1964.1 705.879 1984.66 714.778 1990.43 732.997C1993.6 742.998 2001.55 750.76 2011.62 753.692L2082.56 774.342C2094.55 777.832 2107.49 774.514 2116.31 765.686C2126.36 755.641 2141.57 752.849 2154.52 758.67L2178.36 769.381C2193.64 776.246 2210.83 777.576 2226.99 773.145L2298.86 753.429C2308.39 750.813 2315 742.147 2315 732.261C2315 721.903 2307.76 712.955 2297.63 710.794L2256.76 702.076C2246.99 699.991 2240 691.355 2240 681.359C2240 669.986 2231.02 660.643 2219.66 660.192L2189.96 659.012C2176.06 658.46 2164.5 669.572 2164.5 683.475V684.798C2164.5 693.204 2159.78 700.898 2152.28 704.705C2141.54 710.164 2128.39 706.107 2122.6 695.538L2104.25 662.1C2102.75 659.371 2101.05 656.758 2099.16 654.286L2061.66 605.279C2055.7 597.495 2045.18 594.821 2036.23 598.816C2019.94 606.09 2019.41 629.024 2035.35 637.04L2056.58 647.715C2069.43 654.179 2071.97 671.44 2061.53 681.332L2059.46 683.293C2047.01 695.08 2026.5 686.256 2026.5 669.112C2026.5 662.223 2022.87 655.843 2016.95 652.324L1994.08 638.738C1971.79 625.494 1943.83 626.465 1922.51 641.223L1874.66 674.348C1869.24 678.104 1864.25 682.451 1859.78 687.308L1846.93 701.27C1837.45 711.572 1823.95 717.224 1809.96 716.744L1800.86 716.432C1772.94 715.475 1753.99 687.673 1763.31 661.339L1771.01 639.593C1775.24 627.615 1789.04 622.089 1800.38 627.832L1801.73 628.515C1810.23 632.821 1820.59 630.28 1826.14 622.533L1841.71 600.783C1844.34 597.109 1841.72 592 1837.2 592C1831.52 592 1829.5 584.484 1834.42 581.642L1943.28 518.72C1952.38 513.461 1963.2 512.067 1973.34 514.851L2011.6 525.362C2035.72 531.989 2061.21 531.74 2085.2 524.643L2125.3 512.777C2130.4 511.27 2135.2 508.908 2139.5 505.791L2156.57 493.421C2177.26 478.429 2174.67 446.835 2151.82 435.409L2139.78 429.388C2135.62 427.312 2133 423.067 2133 418.425C2133 409.802 2124.33 403.875 2116.3 407.003L2083.6 419.73C2073.42 423.696 2065.56 432.048 2062.23 442.46L2060.78 446.987C2055.38 463.877 2038.84 474.638 2021.21 472.74C1985.29 468.874 1975.24 421.344 2006.52 403.266L2048.5 379L2176.73 322.009C2181.07 320.079 2185.99 319.916 2190.46 321.554L2229.65 335.944C2241.04 340.126 2238.04 357 2225.91 357C2216.58 357 2211.59 367.982 2217.73 375.006L2233.5 393.059C2237.63 397.787 2243.6 400.5 2249.88 400.5H2292.84C2307.48 400.5 2321.97 397.706 2335.65 392.486C2375.3 377.355 2432.25 357 2447 357H2507.32C2518.99 357 2525.97 344.035 2519.56 334.29C2514.4 326.449 2517.84 315.847 2526.62 312.528L2531.85 310.552C2542.02 306.706 2553.35 312.106 2556.77 322.432L2563.94 344.103C2570.23 363.078 2591.13 372.914 2609.76 365.662L2616.41 363.071C2625.81 359.411 2632 350.356 2632 340.268C2632 328.071 2640.98 317.736 2653.06 316.037L2880.85 283.984C2886.52 283.186 2889.94 290.058 2885.9 294.105C2882.26 297.744 2884.63 303.974 2889.76 304.274L3519 341L3755.85 341C3762.89 341 3769.55 344.225 3773.91 349.753L3787.17 366.539C3796.16 377.912 3785.9 394.271 3771.75 391.135L3763.4 389.285C3750.44 386.413 3741.96 402.461 3751.63 411.553C3758.7 418.197 3756.31 429.954 3747.22 433.319L3729.17 439.997C3721.65 442.781 3713.21 441.311 3707.07 436.147L3706.17 435.397C3699.48 429.764 3689.96 428.962 3682.41 433.394C3672.15 439.418 3669.09 452.836 3675.71 462.717L3690.7 485.088C3693.5 489.268 3695 494.187 3695 499.219C3695 521.834 3667.66 533.159 3651.67 517.168L3636.1 501.605C3629.63 495.135 3626 486.36 3626 477.21V472.69C3626 455.425 3616.21 439.653 3600.74 431.993L3598.8 431.034C3584.23 423.822 3567.03 424.321 3552.91 432.364L3526.88 447.186C3511.56 455.912 3494.23 460.5 3476.59 460.5H3423.74C3413.36 460.5 3404.06 466.916 3400.37 476.62C3394.16 492.98 3406.24 510.5 3423.74 510.5H3468.06C3489.66 510.5 3509.29 523.073 3518.31 542.697L3522.81 552.465C3532.91 574.421 3523.58 600.423 3501.82 610.944C3475.63 623.607 3468.51 657.628 3487.43 679.728L3499.74 694.111C3502.17 696.943 3503.5 700.549 3503.5 704.277C3503.5 716.664 3489.78 724.13 3479.38 717.405L3401.51 667.057C3392.83 661.444 3381.83 660.837 3372.58 665.46C3357.05 673.226 3351.68 692.748 3361.06 707.365L3410.93 785.097C3432.79 819.179 3424 864.429 3390.97 887.848L3378.02 897.026C3357.66 911.46 3330.14 910.411 3310.94 894.469L3300.6 885.883C3294.22 880.586 3285.77 878.485 3277.65 880.177C3256.92 884.497 3248.84 909.797 3263.23 925.336L3314.18 980.349C3329.02 996.37 3324.74 1022.09 3305.5 1032.43C3296.08 1037.5 3284.8 1037.74 3275.16 1033.08L3214.67 1003.84C3206.14 999.708 3195.86 1002.91 3191.17 1011.15C3184.06 1023.68 3165.85 1023.2 3159.41 1010.31L3133.33 958.167C3129.51 950.522 3123.76 944.006 3116.65 939.264L3075.59 911.895C3044.6 891.232 3004.01 892.099 2973.92 914.065L2955.93 927.2C2939.74 939.025 2931.63 958.996 2934.99 978.765L2941.78 1018.66C2943.73 1030.08 2934.93 1040.5 2923.34 1040.5C2917.46 1040.5 2911.92 1037.73 2908.39 1033.03L2830.87 929.885C2805.42 896.026 2768.96 872.102 2727.77 862.235L2660 846L2536.74 803.409C2510.49 794.337 2485.84 820.539 2496.49 846.191C2503.57 863.215 2523.46 870.837 2540.1 862.897L2546.6 859.791C2563.41 851.773 2583.53 856.73 2594.68 871.635L2598.02 876.096C2615.51 899.463 2607 933.005 2580.48 945.205L2532.33 967.361C2495.16 984.462 2451.12 973.921 2425.73 941.847L2321.03 809.62C2317.22 804.807 2311.42 802 2305.28 802C2289.29 802 2279.7 819.78 2288.5 833.14L2392.43 991.019C2412.76 1021.91 2447.26 1040.5 2484.24 1040.5H2527.01C2531.77 1040.5 2536.29 1042.57 2539.4 1046.16C2545.46 1053.18 2544.5 1063.82 2537.27 1069.64L2401.45 1178.86C2375.72 1199.55 2364.88 1233.63 2373.94 1265.38L2387.32 1312.32C2392.39 1330.08 2382.07 1348.59 2364.3 1353.62C2349.92 1357.69 2340 1370.81 2340 1385.76V1392.41C2340 1402.17 2336.62 1411.62 2330.44 1419.17L2259.5 1505.71C2246.7 1521.33 2230.22 1533.5 2211.54 1541.15C2150.57 1566.11 2080.82 1537.98 2054.24 1477.7L2009.32 1375.84C2001.28 1357.6 2007.19 1336.23 2023.46 1324.72C2038.37 1314.17 2044.73 1295.18 2039.18 1277.78L2026.5 1238C2024.49 1232.12 2016.83 1215.43 2006.99 1194.76C1977.31 1132.42 1913.86 1093.5 1844.82 1093.5H1817.09C1781.79 1093.5 1747.23 1083.3 1717.84 1063.74C1676.98 1036.56 1631.05 1005.27 1622 996.5C1616.19 990.87 1614.55 974.649 1615 955.776C1616.02 913.03 1640.1 875.104 1672.13 846.773Z" fill="#51CD19"/>
<path d="M2430.41 1433.64L2445.23 1368.3C2446.32 1363.51 2449.99 1359.73 2454.75 1358.52L2462.94 1356.42C2474.36 1353.5 2481.89 1368.02 2472.91 1375.67C2470.43 1377.78 2469 1380.88 2469 1384.14V1437.96C2469 1448.75 2460.25 1457.5 2449.46 1457.5C2436.93 1457.5 2427.64 1445.87 2430.41 1433.64Z" fill="#51CD19"/>
<path d="M3263.42 1200.8L3205.4 1174.66C3201.55 1172.92 3198.28 1170.11 3196 1166.56C3183.72 1147.46 3205.11 1124.63 3224.97 1135.64L3280.62 1166.52C3286.72 1169.9 3290.5 1176.33 3290.5 1183.3C3290.5 1197.23 3276.12 1206.52 3263.42 1200.8Z" fill="#51CD19"/>
<path d="M3343.5 1191C3336.27 1191 3331.26 1186.08 3327.86 1178.91C3316.2 1154.3 3338.66 1129.03 3364.6 1120.75L3396.33 1110.63C3422.88 1102.15 3450 1121.97 3450 1149.84C3450 1172.57 3431.57 1191 3408.84 1191H3343.5Z" fill="#51CD19"/>
<path d="M3503.5 1184.91V1113.86C3503.5 1111.06 3504.59 1108.38 3506.53 1106.37C3512.18 1100.54 3522.01 1102.83 3524.5 1110.56L3546.3 1178.18C3550.2 1190.26 3543.06 1203.11 3530.75 1206.19C3516.91 1209.65 3503.5 1199.18 3503.5 1184.91Z" fill="#51CD19"/>
<path d="M3436.24 1246.64C3411.08 1254.04 3370.58 1265.78 3365.5 1266.5C3343.23 1269.68 3354.36 1228.1 3376.61 1224.77L3429.65 1216.86C3441.21 1215.13 3450.36 1226.5 3446.19 1237.43C3444.5 1241.88 3440.82 1245.3 3436.24 1246.64Z" fill="#51CD19"/>
<path d="M3580.81 1176.22L3582.87 1174.67C3596.2 1164.66 3613 1173.24 3613 1189.91C3613 1198.98 3607.39 1207.19 3598.69 1209.78C3592.77 1211.55 3586.84 1213 3583.5 1213C3579.83 1213 3576.21 1206.98 3573.35 1200.12C3569.75 1191.5 3573.34 1181.83 3580.81 1176.22Z" fill="#51CD19"/>
<path d="M3645.95 1189.47L3642.76 1164.86C3642.36 1161.76 3644.78 1159 3647.91 1159C3648.63 1159 3649.34 1159.15 3650 1159.44L3879.37 1259.73C3892.2 1265.34 3890.38 1284.08 3876.71 1287.12C3872.75 1288 3868.61 1287.18 3865.28 1284.86L3826.56 1257.81C3814.15 1249.15 3799.38 1244.5 3784.25 1244.5H3744.88C3735.18 1244.5 3726.66 1238.07 3724 1228.75C3721.34 1219.43 3712.82 1213 3703.12 1213H3672.73C3659.16 1213 3647.69 1202.93 3645.95 1189.47Z" fill="#51CD19"/>
<path d="M3516.48 1534.15L3450.55 1546.1C3397.99 1555.62 3351.62 1510.72 3359.44 1457.88C3362.95 1434.21 3377.12 1413.46 3397.89 1401.58L3527.62 1327.37C3537.93 1321.47 3550.42 1320.76 3561.34 1325.46C3574.85 1331.28 3590.52 1328.73 3601.49 1318.92L3626.54 1296.51C3632.04 1291.6 3639.83 1290.19 3646.7 1292.86L3674.07 1303.52C3680.57 1306.05 3680.68 1315.22 3674.23 1317.9C3668.76 1320.18 3667.77 1327.51 3672.44 1331.17L3698.04 1351.2C3709.83 1360.43 3726.9 1358.2 3735.92 1346.25L3738.16 1343.27C3754.06 1322.2 3787.41 1329.98 3792.36 1355.91L3793.64 1362.62C3795.16 1370.6 3799.53 1377.75 3805.94 1382.75L3829.78 1401.33C3851.37 1418.16 3864 1444.01 3864 1471.39C3864 1502.76 3847.45 1531.8 3820.5 1547.86C3763.92 1581.57 3695.11 1622.89 3692 1626C3689.47 1628.53 3660.56 1600.81 3630.92 1570.9C3601 1540.71 3558.3 1526.57 3516.48 1534.15Z" fill="#51CD19"/>
<path d="M3484.6 1239.14C3493.25 1244.98 3488.7 1258.51 3478.28 1257.93C3470.61 1257.51 3466.1 1249.12 3469.97 1242.48C3472.96 1237.35 3479.67 1235.82 3484.6 1239.14Z" fill="#51CD19"/>
</g>
<path d="M240.874 438.632L163.329 457.606C155.985 459.403 148.235 457.235 142.889 451.889C131.249 440.249 136.355 420.391 152.166 415.81L197.242 402.748C202.38 401.259 207.218 398.916 211.721 396.03C223.291 388.613 240.311 379 248.5 379C275.401 379 289.358 341 316.259 341H440C479.582 341 528.679 352.072 567.578 344.75L570.709 344.161C581.817 342.07 593.205 341.941 604.358 343.781L684.5 357L750.764 373.566C765.2 377.175 780.025 379 794.905 379H829.155C855.729 379 881.981 373.181 906.065 361.951L932.779 349.496C944.781 343.9 957.862 341 971.105 341H1009.76C1016.15 341 1022.12 344.216 1025.63 349.557C1033.94 362.191 1024.88 379 1009.76 379H963.703C955.405 379 947.278 381.356 940.266 385.793L861.602 435.576C852.822 441.132 847.5 450.798 847.5 461.189V463.25C847.5 478.852 860.148 491.5 875.75 491.5H882C894.15 491.5 904 501.35 904 513.5C904 525.65 913.85 535.5 926 535.5H937.234C946.048 535.5 954.501 531.999 960.734 525.766L995 491.5C1027.12 461.308 1069.54 444.5 1113.62 444.5H1142.5C1151.04 444.5 1158.01 445.128 1163.66 446.155C1182.01 449.491 1189.9 469.362 1197.41 486.436L1205.27 504.287C1207.07 508.384 1208 512.811 1208 517.288C1208 538.859 1187.25 554.36 1166.56 548.241L1132.96 538.298C1126.79 536.475 1120.23 536.542 1114.1 538.492L1102.14 542.304C1080.18 549.295 1076.95 579.014 1096.88 590.565L1107.88 596.939C1122.2 605.236 1120.96 626.301 1105.77 632.862C1101.1 634.879 1095.83 635.054 1091.04 633.351L1071.82 626.526C1054.59 620.405 1035.67 621.068 1018.91 628.379L951 658L885.922 698.15C834.395 729.94 795.32 786.01 803.5 846C803.568 846.5 803.617 846.994 803.646 847.483C805.222 873.593 765.707 858.372 756.953 833.723C754.675 827.309 751.106 821.431 746.466 816.451L740.267 809.798C722.557 790.793 697.747 780 671.77 780H641.093C608.62 780 579.313 799.469 566.726 829.403L558.243 849.575C551.097 866.569 554.584 886.175 567.152 899.663L569.516 902.2C580.486 913.973 597.285 918.322 612.591 913.352L644.656 902.939C661.893 897.342 678.508 913.002 673.939 930.539C671.095 941.459 676.615 952.826 686.956 957.343L703.939 964.761C709.569 967.22 714.548 970.957 718.481 975.677L740.372 1001.95C753.13 1017.26 742.244 1040.5 722.315 1040.5C716.034 1040.5 710.015 1037.99 705.599 1033.52L685.978 1013.67C674.855 1002.42 660.875 994.548 646.086 988.926C622.643 980.015 594.803 965.86 587.5 949.5C565.24 899.639 478.644 922.018 442.849 880.782L440 877.5L379.763 799.71C374.788 793.286 364.5 796.804 364.5 804.929C364.5 814.177 351.837 816.805 348.157 808.32L303.117 704.478C296.967 690.299 301.825 673.75 314.664 665.146L349.808 641.591C372.739 626.223 386.5 600.434 386.5 572.83V552.921C386.5 514.438 367.68 478.386 336.106 456.385C308.384 437.068 273.695 430.601 240.874 438.632Z" stroke="#096410" stroke-width="40" mask="url(#path-2-outside-1)"/>
<path d="M760.339 336.541L718.484 321.194C714.89 319.876 712.5 316.455 712.5 312.626C712.5 307.586 716.586 303.5 721.626 303.5H854.908C867.13 303.5 876.085 315.006 873.083 326.855C870.976 335.174 863.49 341 854.908 341H785.453C776.885 341 768.383 339.491 760.339 336.541Z" stroke="#096410" stroke-width="40" mask="url(#path-2-outside-1)"/>
<path d="M1108.87 341H1078.33C1075.2 341 1072.16 339.963 1069.68 338.05C1060.05 330.621 1063.66 315.316 1075.59 312.961L1117.25 304.733C1121.38 303.919 1125.62 303.89 1129.76 304.649L1164.14 310.955C1189.55 315.616 1208 337.759 1208 363.589V368.484C1208 387.758 1196.09 405.026 1178.07 411.873C1165.34 416.711 1151.2 415.505 1138.58 410.373C1125.97 405.241 1110.74 400.5 1098.5 400.5C1085.25 400.5 1098.77 394.209 1116.1 387.878C1129.81 382.868 1136.57 367.146 1130.04 354.089C1126.03 346.067 1117.83 341 1108.87 341Z" stroke="#096410" stroke-width="40" mask="url(#path-2-outside-1)"/>
<path d="M1148.65 284.461L1119.79 268.368C1114.08 265.187 1116.34 256.5 1122.87 256.5C1123.29 256.5 1123.69 256.462 1124.1 256.38C1176.69 245.841 1288.72 225 1321 225C1361.5 225 1453 234.5 1465.5 225C1478 215.5 1703.5 225 1744.5 225C1772.01 225 1751.27 254.542 1730.88 276.462C1723.67 284.21 1713.97 289.052 1703.58 291.029L1663.55 298.641C1650.32 301.158 1642.67 315.133 1647.7 327.632C1653.35 341.688 1643 357 1627.85 357H1565.5C1552.48 357 1508.21 367.759 1478.81 375.455C1469.94 377.776 1461.39 381.121 1453.25 385.328L1402.31 411.635C1385.54 420.299 1365.17 417.801 1350.98 405.34L1346.42 401.333C1331.85 388.528 1328.93 366.94 1339.6 350.731L1340.34 349.603C1344.03 343.991 1346 337.42 1346 330.702V318.227C1346 309.596 1340.07 302.096 1331.67 300.109L1308.2 294.555C1298.96 292.368 1297.59 279.78 1306.15 275.663C1315.81 271.017 1312.51 256.5 1301.78 256.5H1235.09C1231.73 256.5 1228.4 257.171 1225.3 258.473L1161.7 285.186C1157.47 286.962 1152.66 286.695 1148.65 284.461Z" stroke="#096410" stroke-width="40" mask="url(#path-2-outside-1)"/>
<path d="M763.869 1155.72L793.787 1108.75C799.528 1099.74 798.559 1088 791.416 1080.05C781.539 1069.06 783.96 1051.82 796.482 1043.97L832.898 1021.15C842.44 1015.17 853.472 1012 864.732 1012H927.293C969.148 1012 1009.72 1026.43 1042.18 1052.85L1118.18 1114.71C1134.25 1127.78 1152.65 1137.68 1172.42 1143.88L1293.28 1181.75C1341.92 1196.99 1366.59 1265.2 1321 1288C1310.61 1293.19 1308.77 1315.61 1310.56 1340.95C1313.19 1378.17 1291.74 1414.57 1255.47 1423.34C1239.08 1427.31 1224.75 1437.22 1215.26 1451.16L1136.66 1566.67C1128 1579.39 1116.54 1589.95 1103.17 1597.55L1067.36 1617.9C1048.6 1628.56 1039.41 1650.55 1045 1671.38L1048.69 1685.13C1058.08 1720.06 1021.14 1749.29 989.3 1732.14L974.889 1724.37C961.907 1717.38 957.45 1700.92 965.127 1688.33C971.463 1677.94 969.65 1664.53 960.783 1656.2L941.964 1638.51C931.681 1628.84 925.312 1615.78 924.07 1601.72C916.37 1514.6 904 1371.89 904 1360.5C904 1353.18 885.047 1340.26 863.933 1328.3C837.33 1313.24 813.017 1294.08 794.926 1269.44L766.34 1230.49C757.998 1219.13 753.5 1205.4 753.5 1191.3C753.5 1178.7 757.097 1166.35 763.869 1155.72Z" stroke="#096410" stroke-width="40" mask="url(#path-2-outside-1)"/>
<path d="M1672.13 846.773C1692.36 828.878 1711.54 811.216 1719.5 802L1734.69 788.631C1741.22 782.885 1748.16 777.613 1755.44 772.858L1773.3 761.203C1801.49 742.8 1834.43 733 1868.09 733H1894.34C1903 733 1911.56 731.056 1919.37 727.312L1946.87 714.137C1964.1 705.879 1984.66 714.778 1990.43 732.997C1993.6 742.998 2001.55 750.76 2011.62 753.692L2082.56 774.342C2094.55 777.832 2107.49 774.514 2116.31 765.686C2126.36 755.641 2141.57 752.849 2154.52 758.67L2178.36 769.381C2193.64 776.246 2210.83 777.576 2226.99 773.145L2298.86 753.429C2308.39 750.813 2315 742.147 2315 732.261C2315 721.903 2307.76 712.955 2297.63 710.794L2256.76 702.076C2246.99 699.991 2240 691.355 2240 681.359C2240 669.986 2231.02 660.643 2219.66 660.192L2189.96 659.012C2176.06 658.46 2164.5 669.572 2164.5 683.475V684.798C2164.5 693.204 2159.78 700.898 2152.28 704.705C2141.54 710.164 2128.39 706.107 2122.6 695.538L2104.25 662.1C2102.75 659.371 2101.05 656.758 2099.16 654.286L2061.66 605.279C2055.7 597.495 2045.18 594.821 2036.23 598.816C2019.94 606.09 2019.41 629.024 2035.35 637.04L2056.58 647.715C2069.43 654.179 2071.97 671.44 2061.53 681.332L2059.46 683.293C2047.01 695.08 2026.5 686.256 2026.5 669.112C2026.5 662.223 2022.87 655.843 2016.95 652.324L1994.08 638.738C1971.79 625.494 1943.83 626.465 1922.51 641.223L1874.66 674.348C1869.24 678.104 1864.25 682.451 1859.78 687.308L1846.93 701.27C1837.45 711.572 1823.95 717.224 1809.96 716.744L1800.86 716.432C1772.94 715.475 1753.99 687.673 1763.31 661.339L1771.01 639.593C1775.24 627.615 1789.04 622.089 1800.38 627.832L1801.73 628.515C1810.23 632.821 1820.59 630.28 1826.14 622.533L1841.71 600.783C1844.34 597.109 1841.72 592 1837.2 592C1831.52 592 1829.5 584.484 1834.42 581.642L1943.28 518.72C1952.38 513.461 1963.2 512.067 1973.34 514.851L2011.6 525.362C2035.72 531.989 2061.21 531.74 2085.2 524.643L2125.3 512.777C2130.4 511.27 2135.2 508.908 2139.5 505.791L2156.57 493.421C2177.26 478.429 2174.67 446.835 2151.82 435.409L2139.78 429.388C2135.62 427.312 2133 423.067 2133 418.425C2133 409.802 2124.33 403.875 2116.3 407.003L2083.6 419.73C2073.42 423.696 2065.56 432.048 2062.23 442.46L2060.78 446.987C2055.38 463.877 2038.84 474.638 2021.21 472.74C1985.29 468.874 1975.24 421.344 2006.52 403.266L2048.5 379L2176.73 322.009C2181.07 320.079 2185.99 319.916 2190.46 321.554L2229.65 335.944C2241.04 340.126 2238.04 357 2225.91 357C2216.58 357 2211.59 367.982 2217.73 375.006L2233.5 393.059C2237.63 397.787 2243.6 400.5 2249.88 400.5H2292.84C2307.48 400.5 2321.97 397.706 2335.65 392.486C2375.3 377.355 2432.25 357 2447 357H2507.32C2518.99 357 2525.97 344.035 2519.56 334.29C2514.4 326.449 2517.84 315.847 2526.62 312.528L2531.85 310.552C2542.02 306.706 2553.35 312.106 2556.77 322.432L2563.94 344.103C2570.23 363.078 2591.13 372.914 2609.76 365.662L2616.41 363.071C2625.81 359.411 2632 350.356 2632 340.268C2632 328.071 2640.98 317.736 2653.06 316.037L2880.85 283.984C2886.52 283.186 2889.94 290.058 2885.9 294.105C2882.26 297.744 2884.63 303.974 2889.76 304.274L3519 341L3755.85 341C3762.89 341 3769.55 344.225 3773.91 349.753L3787.17 366.539C3796.16 377.912 3785.9 394.271 3771.75 391.135L3763.4 389.285C3750.44 386.413 3741.96 402.461 3751.63 411.553C3758.7 418.197 3756.31 429.954 3747.22 433.319L3729.17 439.997C3721.65 442.781 3713.21 441.311 3707.07 436.147L3706.17 435.397C3699.48 429.764 3689.96 428.962 3682.41 433.394C3672.15 439.418 3669.09 452.836 3675.71 462.717L3690.7 485.088C3693.5 489.268 3695 494.187 3695 499.219C3695 521.834 3667.66 533.159 3651.67 517.168L3636.1 501.605C3629.63 495.135 3626 486.36 3626 477.21V472.69C3626 455.425 3616.21 439.653 3600.74 431.993L3598.8 431.034C3584.23 423.822 3567.03 424.321 3552.91 432.364L3526.88 447.186C3511.56 455.912 3494.23 460.5 3476.59 460.5H3423.74C3413.36 460.5 3404.06 466.916 3400.37 476.62C3394.16 492.98 3406.24 510.5 3423.74 510.5H3468.06C3489.66 510.5 3509.29 523.073 3518.31 542.697L3522.81 552.465C3532.91 574.421 3523.58 600.423 3501.82 610.944C3475.63 623.607 3468.51 657.628 3487.43 679.728L3499.74 694.111C3502.17 696.943 3503.5 700.549 3503.5 704.277C3503.5 716.664 3489.78 724.13 3479.38 717.405L3401.51 667.057C3392.83 661.444 3381.83 660.837 3372.58 665.46C3357.05 673.226 3351.68 692.748 3361.06 707.365L3410.93 785.097C3432.79 819.179 3424 864.429 3390.97 887.848L3378.02 897.026C3357.66 911.46 3330.14 910.411 3310.94 894.469L3300.6 885.883C3294.22 880.586 3285.77 878.485 3277.65 880.177C3256.92 884.497 3248.84 909.797 3263.23 925.336L3314.18 980.349C3329.02 996.37 3324.74 1022.09 3305.5 1032.43C3296.08 1037.5 3284.8 1037.74 3275.16 1033.08L3214.67 1003.84C3206.14 999.708 3195.86 1002.91 3191.17 1011.15C3184.06 1023.68 3165.85 1023.2 3159.41 1010.31L3133.33 958.167C3129.51 950.522 3123.76 944.006 3116.65 939.264L3075.59 911.895C3044.6 891.232 3004.01 892.099 2973.92 914.065L2955.93 927.2C2939.74 939.025 2931.63 958.996 2934.99 978.765L2941.78 1018.66C2943.73 1030.08 2934.93 1040.5 2923.34 1040.5C2917.46 1040.5 2911.92 1037.73 2908.39 1033.03L2830.87 929.885C2805.42 896.026 2768.96 872.102 2727.77 862.235L2660 846L2536.74 803.409C2510.49 794.337 2485.84 820.539 2496.49 846.191C2503.57 863.215 2523.46 870.837 2540.1 862.897L2546.6 859.791C2563.41 851.773 2583.53 856.73 2594.68 871.635L2598.02 876.096C2615.51 899.463 2607 933.005 2580.48 945.205L2532.33 967.361C2495.16 984.462 2451.12 973.921 2425.73 941.847L2321.03 809.62C2317.22 804.807 2311.42 802 2305.28 802C2289.29 802 2279.7 819.78 2288.5 833.14L2392.43 991.019C2412.76 1021.91 2447.26 1040.5 2484.24 1040.5H2527.01C2531.77 1040.5 2536.29 1042.57 2539.4 1046.16C2545.46 1053.18 2544.5 1063.82 2537.27 1069.64L2401.45 1178.86C2375.72 1199.55 2364.88 1233.63 2373.94 1265.38L2387.32 1312.32C2392.39 1330.08 2382.07 1348.59 2364.3 1353.62C2349.92 1357.69 2340 1370.81 2340 1385.76V1392.41C2340 1402.17 2336.62 1411.62 2330.44 1419.17L2259.5 1505.71C2246.7 1521.33 2230.22 1533.5 2211.54 1541.15C2150.57 1566.11 2080.82 1537.98 2054.24 1477.7L2009.32 1375.84C2001.28 1357.6 2007.19 1336.23 2023.46 1324.72C2038.37 1314.17 2044.73 1295.18 2039.18 1277.78L2026.5 1238C2024.49 1232.12 2016.83 1215.43 2006.99 1194.76C1977.31 1132.42 1913.86 1093.5 1844.82 1093.5H1817.09C1781.79 1093.5 1747.23 1083.3 1717.84 1063.74C1676.98 1036.56 1631.05 1005.27 1622 996.5C1616.19 990.87 1614.55 974.649 1615 955.776C1616.02 913.03 1640.1 875.104 1672.13 846.773Z" stroke="#096410" stroke-width="40" mask="url(#path-2-outside-1)"/>
<path d="M2430.41 1433.64L2445.23 1368.3C2446.32 1363.51 2449.99 1359.73 2454.75 1358.52L2462.94 1356.42C2474.36 1353.5 2481.89 1368.02 2472.91 1375.67C2470.43 1377.78 2469 1380.88 2469 1384.14V1437.96C2469 1448.75 2460.25 1457.5 2449.46 1457.5C2436.93 1457.5 2427.64 1445.87 2430.41 1433.64Z" stroke="#096410" stroke-width="40" mask="url(#path-2-outside-1)"/>
<path d="M3263.42 1200.8L3205.4 1174.66C3201.55 1172.92 3198.28 1170.11 3196 1166.56C3183.72 1147.46 3205.11 1124.63 3224.97 1135.64L3280.62 1166.52C3286.72 1169.9 3290.5 1176.33 3290.5 1183.3C3290.5 1197.23 3276.12 1206.52 3263.42 1200.8Z" stroke="#096410" stroke-width="40" mask="url(#path-2-outside-1)"/>
<path d="M3343.5 1191C3336.27 1191 3331.26 1186.08 3327.86 1178.91C3316.2 1154.3 3338.66 1129.03 3364.6 1120.75L3396.33 1110.63C3422.88 1102.15 3450 1121.97 3450 1149.84C3450 1172.57 3431.57 1191 3408.84 1191H3343.5Z" stroke="#096410" stroke-width="40" mask="url(#path-2-outside-1)"/>
<path d="M3503.5 1184.91V1113.86C3503.5 1111.06 3504.59 1108.38 3506.53 1106.37C3512.18 1100.54 3522.01 1102.83 3524.5 1110.56L3546.3 1178.18C3550.2 1190.26 3543.06 1203.11 3530.75 1206.19C3516.91 1209.65 3503.5 1199.18 3503.5 1184.91Z" stroke="#096410" stroke-width="40" mask="url(#path-2-outside-1)"/>
<path d="M3436.24 1246.64C3411.08 1254.04 3370.58 1265.78 3365.5 1266.5C3343.23 1269.68 3354.36 1228.1 3376.61 1224.77L3429.65 1216.86C3441.21 1215.13 3450.36 1226.5 3446.19 1237.43C3444.5 1241.88 3440.82 1245.3 3436.24 1246.64Z" stroke="#096410" stroke-width="40" mask="url(#path-2-outside-1)"/>
<path d="M3580.81 1176.22L3582.87 1174.67C3596.2 1164.66 3613 1173.24 3613 1189.91C3613 1198.98 3607.39 1207.19 3598.69 1209.78C3592.77 1211.55 3586.84 1213 3583.5 1213C3579.83 1213 3576.21 1206.98 3573.35 1200.12C3569.75 1191.5 3573.34 1181.83 3580.81 1176.22Z" stroke="#096410" stroke-width="40" mask="url(#path-2-outside-1)"/>
<path d="M3645.95 1189.47L3642.76 1164.86C3642.36 1161.76 3644.78 1159 3647.91 1159C3648.63 1159 3649.34 1159.15 3650 1159.44L3879.37 1259.73C3892.2 1265.34 3890.38 1284.08 3876.71 1287.12C3872.75 1288 3868.61 1287.18 3865.28 1284.86L3826.56 1257.81C3814.15 1249.15 3799.38 1244.5 3784.25 1244.5H3744.88C3735.18 1244.5 3726.66 1238.07 3724 1228.75C3721.34 1219.43 3712.82 1213 3703.12 1213H3672.73C3659.16 1213 3647.69 1202.93 3645.95 1189.47Z" stroke="#096410" stroke-width="40" mask="url(#path-2-outside-1)"/>
<path d="M3516.48 1534.15L3450.55 1546.1C3397.99 1555.62 3351.62 1510.72 3359.44 1457.88C3362.95 1434.21 3377.12 1413.46 3397.89 1401.58L3527.62 1327.37C3537.93 1321.47 3550.42 1320.76 3561.34 1325.46C3574.85 1331.28 3590.52 1328.73 3601.49 1318.92L3626.54 1296.51C3632.04 1291.6 3639.83 1290.19 3646.7 1292.86L3674.07 1303.52C3680.57 1306.05 3680.68 1315.22 3674.23 1317.9C3668.76 1320.18 3667.77 1327.51 3672.44 1331.17L3698.04 1351.2C3709.83 1360.43 3726.9 1358.2 3735.92 1346.25L3738.16 1343.27C3754.06 1322.2 3787.41 1329.98 3792.36 1355.91L3793.64 1362.62C3795.16 1370.6 3799.53 1377.75 3805.94 1382.75L3829.78 1401.33C3851.37 1418.16 3864 1444.01 3864 1471.39C3864 1502.76 3847.45 1531.8 3820.5 1547.86C3763.92 1581.57 3695.11 1622.89 3692 1626C3689.47 1628.53 3660.56 1600.81 3630.92 1570.9C3601 1540.71 3558.3 1526.57 3516.48 1534.15Z" stroke="#096410" stroke-width="40" mask="url(#path-2-outside-1)"/>
<path d="M3484.6 1239.14C3493.25 1244.98 3488.7 1258.51 3478.28 1257.93C3470.61 1257.51 3466.1 1249.12 3469.97 1242.48C3472.96 1237.35 3479.67 1235.82 3484.6 1239.14Z" stroke="#096410" stroke-width="40" mask="url(#path-2-outside-1)"/>
<g filter="url(#filter1_i)">
<path fill-rule="evenodd" clip-rule="evenodd" d="M791.655 861.097C795.459 858.477 799.294 855.913 803.164 853.41C801.688 858.979 797.26 861.279 791.655 861.097ZM681.538 954.019C678.721 956.664 675.908 959.309 673.097 961.953C663.646 970.841 654.223 979.702 644.774 988.424C645.213 988.593 645.65 988.761 646.086 988.926C660.875 994.548 674.855 1002.42 685.978 1013.67L705.599 1033.52C710.015 1037.99 716.034 1040.5 722.315 1040.5C742.244 1040.5 753.13 1017.26 740.372 1001.95L718.481 975.677C714.548 970.958 709.569 967.22 703.939 964.761L686.956 957.343C684.962 956.472 683.148 955.347 681.538 954.019ZM3503.5 1121.74C3511.81 1124.3 3520.62 1126.29 3530 1127.62L3546.3 1178.18C3550.2 1190.26 3543.06 1203.11 3530.75 1206.19C3516.91 1209.65 3503.5 1199.18 3503.5 1184.91V1121.74ZM1725.92 1068.81C1753.47 1085.05 1784.98 1093.5 1817.09 1093.5H1817.67C1785.64 1087.03 1755.19 1078.64 1725.92 1068.81ZM1911.69 1106.19C1952.82 1122.42 1987.32 1153.45 2006.99 1194.76C2016.83 1215.43 2024.49 1232.12 2026.5 1238L2039.18 1277.78C2044.73 1295.18 2038.37 1314.17 2023.46 1324.72C2007.19 1336.23 2001.28 1357.6 2009.32 1375.84L2054.24 1477.7C2080.82 1537.98 2150.57 1566.11 2211.54 1541.15C2230.22 1533.5 2246.7 1521.33 2259.5 1505.71L2330.44 1419.17C2336.62 1411.62 2340 1402.17 2340 1392.41V1385.76C2340 1370.81 2349.92 1357.69 2364.3 1353.62C2382.07 1348.58 2392.39 1330.08 2387.32 1312.32L2373.94 1265.38C2364.88 1233.63 2375.72 1199.55 2401.45 1178.86L2537.27 1069.64C2544.5 1063.82 2545.46 1053.18 2539.4 1046.16C2536.29 1042.57 2531.77 1040.5 2527.01 1040.5H2484.24C2447.26 1040.5 2412.76 1021.91 2392.43 991.019L2391.04 988.904C2264.85 1054.01 2134.21 1110.22 1956 1108C1940.88 1107.81 1926.12 1107.2 1911.69 1106.19ZM2445.59 960.277C2470.75 977.281 2503.59 980.583 2532.33 967.361L2580.48 945.205C2604.85 933.991 2614.02 904.743 2601.75 881.941C2548.97 905.506 2499.16 931.895 2449.7 958.1C2448.33 958.826 2446.96 959.551 2445.59 960.277ZM2679.23 850.606C2765.67 819.52 2862.08 798.5 2978 798.5C3120.69 798.5 3207.47 835.155 3268.18 884.074C3254.81 892.856 3251.29 912.451 3263.23 925.336L3314.18 980.349C3329.02 996.37 3324.74 1022.09 3305.5 1032.43C3296.08 1037.5 3284.8 1037.74 3275.16 1033.08L3214.67 1003.84C3206.14 999.708 3195.86 1002.91 3191.17 1011.15C3184.06 1023.68 3165.85 1023.2 3159.41 1010.31L3133.33 958.167C3129.51 950.521 3123.76 944.006 3116.65 939.264L3075.59 911.895C3044.6 891.232 3004.01 892.099 2973.92 914.065L2955.93 927.2C2939.74 939.025 2931.63 958.996 2934.99 978.765L2941.78 1018.66C2943.73 1030.08 2934.93 1040.5 2923.34 1040.5C2917.46 1040.5 2911.92 1037.73 2908.39 1033.03L2830.87 929.885C2805.42 896.026 2768.96 872.102 2727.77 862.235L2679.23 850.606ZM793.787 1108.75L763.869 1155.72C757.097 1166.35 753.5 1178.7 753.5 1191.3C753.5 1205.4 757.998 1219.13 766.34 1230.49L794.926 1269.44C813.017 1294.08 837.33 1313.24 863.933 1328.3C885.047 1340.26 904 1353.18 904 1360.5C904 1371.89 916.37 1514.6 924.07 1601.72C925.312 1615.78 931.681 1628.84 941.964 1638.51L960.783 1656.2C969.65 1664.53 971.463 1677.94 965.127 1688.33C957.45 1700.92 961.907 1717.38 974.889 1724.37L989.3 1732.14C1021.14 1749.29 1058.08 1720.06 1048.69 1685.13L1045 1671.38C1039.41 1650.55 1048.6 1628.56 1067.36 1617.9L1103.17 1597.55C1116.54 1589.95 1128 1579.39 1136.66 1566.67L1215.26 1451.16C1224.75 1437.22 1239.08 1427.31 1255.47 1423.34C1291.74 1414.57 1313.19 1378.17 1310.56 1340.95C1308.77 1315.61 1310.61 1293.19 1321 1288C1366.59 1265.2 1341.92 1196.99 1293.28 1181.75L1172.42 1143.88C1152.65 1137.68 1134.25 1127.78 1118.18 1114.71L1042.18 1052.85C1009.72 1026.43 969.148 1012 927.293 1012H864.732C853.472 1012 842.44 1015.17 832.898 1021.15L796.482 1043.97C783.96 1051.82 781.539 1069.06 791.416 1080.05C798.559 1088 799.528 1099.74 793.787 1108.75ZM2445.23 1368.3L2430.41 1433.64C2427.64 1445.87 2436.93 1457.5 2449.46 1457.5C2460.25 1457.5 2469 1448.75 2469 1437.96V1384.14C2469 1380.88 2470.43 1377.78 2472.91 1375.67C2481.89 1368.02 2474.36 1353.5 2462.94 1356.42L2454.75 1358.52C2449.99 1359.73 2446.32 1363.51 2445.23 1368.3ZM3263.42 1200.8L3205.4 1174.66C3201.55 1172.92 3198.28 1170.11 3196 1166.56C3183.72 1147.46 3205.11 1124.63 3224.97 1135.64L3280.62 1166.52C3286.72 1169.9 3290.5 1176.33 3290.5 1183.3C3290.5 1197.23 3276.12 1206.52 3263.42 1200.8ZM3327.86 1178.91C3331.26 1186.08 3336.27 1191 3343.5 1191H3408.84C3431.57 1191 3450 1172.57 3450 1149.84C3450 1121.97 3422.88 1102.15 3396.33 1110.63L3364.6 1120.75C3338.66 1129.03 3316.2 1154.3 3327.86 1178.91ZM3365.5 1266.5C3370.58 1265.77 3411.08 1254.04 3436.24 1246.64C3440.82 1245.29 3444.5 1241.88 3446.19 1237.43C3450.36 1226.5 3441.21 1215.13 3429.65 1216.86L3376.61 1224.77C3354.36 1228.1 3343.23 1269.68 3365.5 1266.5ZM3580.81 1176.22L3582.87 1174.67C3596.2 1164.66 3613 1173.24 3613 1189.91C3613 1198.98 3607.39 1207.19 3598.69 1209.78C3592.77 1211.55 3586.84 1213 3583.5 1213C3579.83 1213 3576.21 1206.98 3573.35 1200.12C3569.75 1191.5 3573.34 1181.83 3580.81 1176.22ZM3642.76 1164.86L3645.95 1189.47C3647.69 1202.93 3659.16 1213 3672.73 1213H3703.12C3712.82 1213 3721.34 1219.43 3724 1228.75C3726.66 1238.07 3735.18 1244.5 3744.88 1244.5H3784.25C3799.38 1244.5 3814.15 1249.15 3826.56 1257.81L3865.28 1284.86C3868.61 1287.18 3872.75 1288 3876.71 1287.12C3890.38 1284.08 3892.2 1265.34 3879.37 1259.73L3650 1159.44C3649.34 1159.15 3648.63 1159 3647.91 1159C3644.78 1159 3642.36 1161.76 3642.76 1164.86ZM3516.48 1534.15L3450.55 1546.1C3397.99 1555.62 3351.62 1510.72 3359.44 1457.88C3362.95 1434.21 3377.12 1413.46 3397.89 1401.58L3527.62 1327.37C3537.93 1321.47 3550.42 1320.76 3561.34 1325.46C3574.85 1331.28 3590.52 1328.73 3601.49 1318.92L3626.54 1296.51C3632.04 1291.6 3639.83 1290.19 3646.7 1292.86L3674.07 1303.52C3680.57 1306.05 3680.68 1315.22 3674.23 1317.9C3668.76 1320.18 3667.77 1327.51 3672.44 1331.17L3698.04 1351.2C3709.83 1360.43 3726.9 1358.2 3735.92 1346.25L3738.16 1343.27C3754.06 1322.2 3787.41 1329.98 3792.36 1355.91L3793.64 1362.62C3795.16 1370.6 3799.53 1377.75 3805.94 1382.75L3829.78 1401.33C3851.37 1418.16 3864 1444.01 3864 1471.39C3864 1502.76 3847.45 1531.8 3820.5 1547.86C3763.92 1581.57 3695.11 1622.89 3692 1626C3689.47 1628.53 3660.56 1600.81 3630.92 1570.9C3601 1540.71 3558.3 1526.57 3516.48 1534.15ZM3478.28 1257.93C3488.7 1258.51 3493.25 1244.98 3484.6 1239.14C3479.67 1235.82 3472.96 1237.35 3469.97 1242.48C3466.1 1249.12 3470.61 1257.51 3478.28 1257.93Z" fill="#319C00"/>
</g>
<path d="M1476 1224.49V1195.57C1476 1110.08 1565.97 1054.48 1642.43 1092.71L1781.42 1162.21C1830.57 1186.78 1855.47 1242.69 1840.85 1295.65L1816.55 1383.77C1807.34 1417.13 1783.6 1444.58 1751.91 1458.49L1527.12 1557.16C1419.99 1604.19 1319.24 1479.83 1387.48 1384.79L1454.42 1291.56C1468.45 1272.01 1476 1248.56 1476 1224.49Z" fill="#1869ED"/>
<path d="M1121.41 917.888C1133.72 927.11 1145.73 936.08 1157.16 944.581C1206.8 981.522 1274.08 968.667 1308.29 917.099L1339.52 870.012C1401.51 776.547 1306.71 658.695 1202.13 699.215L1149.07 719.775C1065.25 752.252 1049.47 863.992 1121.41 917.888Z" fill="#1869ED"/>
<path d="M2555.77 1152.62L2595.54 1105.48C2638.27 1054.82 2715.96 1053.76 2760.06 1103.22C2777.74 1123.05 2802.06 1135.74 2828.44 1138.89L2976.15 1156.52C2997.93 1159.12 3018.51 1167.89 3035.46 1181.8L3169.27 1291.57C3208.33 1323.62 3221.9 1377.41 3202.71 1424.15L3158.69 1531.41C3147.34 1559.05 3125.69 1581.18 3098.31 1593.14L3059.22 1610.2C3013.57 1630.13 2960.22 1613.22 2934.38 1570.63C2901.84 1517 2828.38 1506.51 2782.13 1548.9L2728.43 1598.11C2716.38 1609.15 2701.49 1616.59 2685.43 1619.6L2628.59 1630.24C2553.11 1644.38 2509.41 1547.74 2569.86 1500.4C2595.21 1480.54 2604.65 1446.49 2593.13 1416.42L2536.27 1267.89C2521.3 1228.78 2528.76 1184.63 2555.77 1152.62Z" fill="#1869ED"/>
<path d="M219.207 663.256L224.53 649.731C245.729 595.87 197.369 540.504 141.147 554.266C107.514 562.499 84.6425 593.684 86.8959 628.236L105.797 918.05C108.323 956.782 134.705 989.842 171.91 1000.9C246.813 1023.16 313.975 948.471 283.914 876.344L219.797 722.505C211.91 703.582 211.699 682.332 219.207 663.256Z" fill="#1869ED"/>
<path d="M641.202 1288.33L645.992 1240.04C649.324 1206.44 632.02 1174.16 602.195 1158.34C546.782 1128.94 480 1169.1 480 1231.83V1280.36C480 1298.58 486.161 1316.27 497.481 1330.55C542.593 1387.46 634.036 1360.6 641.202 1288.33Z" fill="#1869ED"/>
<path d="M323.955 1283.94L290.999 1260.84C214.785 1207.43 110 1261.95 110 1355.02V1685.9C110 1723.55 128.429 1758.82 159.338 1780.31L322.117 1893.52C355.166 1916.51 398.335 1918.95 433.767 1899.84L530.414 1847.72C590.344 1815.39 574.293 1725.33 506.886 1715.7C478.525 1711.65 455.424 1690.86 448.419 1663.08L369.465 1350C362.714 1323.23 346.561 1299.78 323.955 1283.94Z" fill="#1869ED"/>
<path d="M276.012 257.873L258.024 268.323C184.522 311.023 93.4381 253.055 100.995 168.387C106.017 112.121 154.731 69.9597 211.135 73.0614L596.07 94.2289C599.35 94.4093 602.606 94.8889 605.799 95.6619L772.701 136.072C811.164 145.384 804.408 202 764.833 202C761.3 202 757.789 202.56 754.431 203.659L587.389 258.343C571.971 263.391 555.659 265.119 539.525 263.414L345.864 242.948C321.586 240.383 297.122 245.61 276.012 257.873Z" fill="#1869ED"/>
<path d="M1860.69 233.46L1903.82 168.777C1925.44 136.338 1965.35 121.304 2003 131.41C2087.33 154.044 2094.35 270.978 2013.33 303.532L1940 333C1879.22 356.066 1824.63 287.553 1860.69 233.46Z" fill="#1869ED"/>
<path d="M2696.15 204.638L2503.59 241.317C2451.43 251.251 2410.99 196.391 2435.9 149.509C2447.27 128.099 2469.89 115.076 2494.12 115.983L3316.39 146.761C3336.04 147.496 3352.87 161.046 3357.79 180.084C3365.31 209.236 3342.31 237.287 3312.25 235.609L2724.08 202.786C2714.73 202.264 2705.35 202.886 2696.15 204.638Z" fill="#1869ED"/>
<path d="M3724.19 241.336L3542.01 258.153C3501.59 261.884 3470.4 223.27 3482.54 184.537C3489.47 162.45 3509.09 146.768 3532.16 144.886L3850.68 118.892C3879.67 116.527 3904.5 139.415 3904.5 168.5C3904.5 235.525 3834.58 279.621 3774.1 250.744L3772.44 249.951C3757.43 242.784 3740.75 239.807 3724.19 241.336Z" fill="#1869ED"/>
<path d="M3523.13 856.129L3602 705.416C3606.3 697.195 3611.93 689.736 3618.65 683.339C3683.88 621.272 3788.06 690.412 3756.21 774.626L3737.63 823.758C3730.19 843.422 3730.97 865.25 3739.8 884.332L3797.14 1008.34C3815.86 1048.82 3768.36 1087.63 3732.42 1061.22C3728.18 1058.1 3723.4 1055.78 3718.31 1054.39L3594.52 1020.33C3523.81 1000.88 3489.13 921.105 3523.13 856.129Z" fill="#1869ED"/>
<path d="M2408.27 1897.5H2326.57C2285.23 1897.5 2256.2 1856.57 2269.31 1817.37C2279.08 1788.17 2309.15 1770.56 2339.33 1776.65L2418 1792.5C2481.26 1804.33 2472.63 1897.5 2408.27 1897.5Z" fill="#1869ED"/>
<path d="M3582.28 1892.58L3434.81 1864.9C3346.46 1848.31 3329.72 1728.99 3410.09 1688.73C3431.54 1677.99 3456.3 1675.87 3479.27 1682.81L3622.9 1726.2C3699.02 1749.2 3705.56 1854.43 3632.88 1886.68C3617 1893.73 3599.36 1895.78 3582.28 1892.58Z" fill="#1869ED"/>
<path d="M1758.27 1858.53L1692.09 1834.59C1610.3 1805 1593.74 1696.59 1662.97 1643.93C1687.22 1625.48 1718.06 1617.94 1748.09 1623.11L1817.64 1635.09C1888.37 1647.28 1930.39 1721.64 1905.71 1789.03C1883.93 1848.51 1817.84 1880.08 1758.27 1858.53Z" fill="#1869ED"/>
<path d="M1232.88 1824.48C1275.51 1844.94 1264.05 1908.56 1216.97 1912.86C1167.91 1917.34 1146.38 1852.54 1188.37 1826.77C1201.85 1818.5 1218.62 1817.64 1232.88 1824.48Z" fill="#1869ED"/>
<path d="M1476 1224.49V1195.57C1476 1110.08 1565.97 1054.48 1642.43 1092.71L1781.42 1162.21C1830.57 1186.78 1855.47 1242.69 1840.85 1295.65L1816.55 1383.77C1807.34 1417.13 1783.6 1444.58 1751.91 1458.49L1527.12 1557.16C1419.99 1604.19 1319.24 1479.83 1387.48 1384.79L1454.42 1291.56C1468.45 1272.01 1476 1248.56 1476 1224.49Z" fill="#0747A8"/>
<path d="M2555.77 1152.62L2595.54 1105.48C2638.27 1054.82 2715.96 1053.76 2760.06 1103.22C2777.74 1123.05 2802.06 1135.74 2828.44 1138.89L2976.15 1156.52C2997.93 1159.12 3018.51 1167.89 3035.46 1181.8L3169.27 1291.57C3208.33 1323.62 3221.9 1377.41 3202.71 1424.15L3158.69 1531.41C3147.34 1559.05 3125.69 1581.18 3098.31 1593.14L3059.22 1610.2C3013.57 1630.13 2960.22 1613.22 2934.38 1570.63C2901.84 1517 2828.38 1506.51 2782.13 1548.9L2728.43 1598.11C2716.38 1609.15 2701.49 1616.59 2685.43 1619.6L2628.59 1630.24C2553.11 1644.38 2509.41 1547.74 2569.86 1500.4C2595.21 1480.54 2604.65 1446.49 2593.13 1416.42L2536.27 1267.89C2521.3 1228.78 2528.76 1184.63 2555.77 1152.62Z" fill="#0747A8"/>
<path d="M641.202 1288.33L645.992 1240.04C649.324 1206.44 632.02 1174.16 602.195 1158.34C546.782 1128.94 480 1169.1 480 1231.83V1280.36C480 1298.58 486.161 1316.27 497.481 1330.55C542.593 1387.46 634.036 1360.6 641.202 1288.33Z" fill="#0747A8"/>
<path d="M323.955 1283.94L290.999 1260.84C214.785 1207.43 110 1261.95 110 1355.02V1685.9C110 1723.55 128.429 1758.82 159.338 1780.31L322.117 1893.52C355.166 1916.51 398.335 1918.95 433.767 1899.84L530.414 1847.72C590.344 1815.39 574.293 1725.33 506.886 1715.7C478.525 1711.65 455.424 1690.86 448.419 1663.08L369.465 1350C362.714 1323.23 346.561 1299.78 323.955 1283.94Z" fill="#0747A8"/>
<path d="M2408.27 1897.5H2326.57C2285.23 1897.5 2256.2 1856.57 2269.31 1817.37C2279.08 1788.17 2309.15 1770.56 2339.33 1776.65L2418 1792.5C2481.26 1804.33 2472.63 1897.5 2408.27 1897.5Z" fill="#0747A8"/>
<path d="M3582.28 1892.58L3434.81 1864.9C3346.46 1848.31 3329.72 1728.99 3410.09 1688.73C3431.54 1677.99 3456.3 1675.87 3479.27 1682.81L3622.9 1726.2C3699.02 1749.2 3705.56 1854.43 3632.88 1886.68C3617 1893.73 3599.36 1895.78 3582.28 1892.58Z" fill="#0747A8"/>
<path d="M1758.27 1858.53L1692.09 1834.59C1610.3 1805 1593.74 1696.59 1662.97 1643.93C1687.22 1625.48 1718.06 1617.94 1748.09 1623.11L1817.64 1635.09C1888.37 1647.28 1930.39 1721.64 1905.71 1789.03C1883.93 1848.51 1817.84 1880.08 1758.27 1858.53Z" fill="#0747A8"/>
<path d="M1232.88 1824.48C1275.51 1844.94 1264.05 1908.56 1216.97 1912.86C1167.91 1917.34 1146.38 1852.54 1188.37 1826.77C1201.85 1818.5 1218.62 1817.64 1232.88 1824.48Z" fill="#0747A8"/>
<ellipse cx="1926.91" cy="879.807" rx="128.914" ry="141.063" fill="#0C457B"/>
<ellipse cx="1926.91" cy="895.929" rx="104.743" ry="116.881" fill="white"/>
<path d="M1919.21 863.95C1929.94 857.675 1942.44 855.121 1954.77 856.686C1967.1 858.251 1978.57 863.847 1987.39 872.604C1996.21 881.361 2001.9 892.789 2003.56 905.112C2005.23 917.435 2002.77 929.963 1996.59 940.748C1990.4 951.533 1980.83 959.971 1969.35 964.751C1957.88 969.532 1945.15 970.387 1933.14 967.183C1921.13 963.979 1910.51 956.896 1902.94 947.034C1895.37 937.173 1891.27 925.086 1891.27 912.651L1947.67 912.662L1919.21 863.95Z" fill="#041F3B"/>
<ellipse cx="2233.09" cy="887.868" rx="128.914" ry="141.063" fill="#0C457B"/>
<ellipse cx="2233.09" cy="903.989" rx="104.743" ry="116.881" fill="white"/>
<path d="M2282.3 872.011C2271.57 865.735 2259.07 863.181 2246.74 864.746C2234.41 866.311 2222.94 871.907 2214.12 880.664C2205.29 889.422 2199.61 900.85 2197.94 913.173C2196.28 925.496 2198.73 938.023 2204.92 948.808C2211.11 959.593 2220.68 968.031 2232.16 972.812C2243.63 977.592 2256.36 978.447 2268.37 975.243C2280.38 972.039 2290.99 964.956 2298.57 955.095C2306.14 945.234 2310.24 933.146 2310.24 920.712L2253.84 920.723L2282.3 872.011Z" fill="#041F3B"/>
<path fill-rule="evenodd" clip-rule="evenodd" d="M1941.4 703.456C1926.71 702.576 1911.98 706.153 1903.2 709.666C1897 712.146 1889.97 709.131 1887.49 702.931C1885.01 696.73 1888.03 689.694 1894.23 687.214C1905.59 682.666 1923.9 678.182 1942.84 679.317C1961.97 680.463 1983.17 687.508 1997.24 707.628C2001.07 713.098 1999.74 720.638 1994.27 724.467C1988.8 728.296 1981.27 726.966 1977.44 721.495C1968.96 709.372 1955.91 704.326 1941.4 703.456ZM2252.92 713.756C2216.17 699.616 2186.18 715.128 2176.66 723.599C2171.67 728.035 2164.03 727.586 2159.6 722.594C2155.16 717.603 2155.61 709.961 2160.6 705.525C2175.24 692.5 2214.55 673.082 2261.6 691.185C2267.82 693.582 2270.93 700.578 2268.54 706.811C2266.14 713.044 2259.15 716.153 2252.92 713.756Z" fill="#041F3B"/>
<path fill-rule="evenodd" clip-rule="evenodd" d="M1877.17 1036.24C1882.03 1028.78 1892.02 1026.69 1899.47 1031.55C1930.53 1051.85 1985.78 1076.64 2048.89 1083.85C2111.69 1091.02 2181.35 1080.73 2243.31 1032.34C2250.33 1026.87 2260.46 1028.11 2265.93 1035.13C2271.41 1042.15 2270.16 1052.28 2263.14 1057.76C2164.6 1153.87 2208.83 1327.46 2011.51 1266.72C1959.14 1250.6 2080 1157.9 1881.85 1058.55C1874.39 1053.68 1872.3 1043.69 1877.17 1036.24Z" fill="#0B2D58"/>
<path d="M2028.21 1238.75C2004.13 1194.15 2080.58 1146.05 2112.81 1150.08C2150.73 1154.82 2166.85 1226.29 2132.96 1246.81C2132.51 1247.08 2132.05 1247.35 2131.59 1247.62C2102.37 1264.46 2045.71 1271.15 2028.21 1238.75Z" fill="#A62912"/>
<path fill-rule="evenodd" clip-rule="evenodd" d="M2112.81 1150.08C2080.58 1146.05 2004.13 1194.15 2028.21 1238.75C2030.7 1218.52 2050.99 1176.44 2096.11 1169.99C2095.49 1173.1 2093.56 1178.32 2091.33 1184.31C2088.74 1191.29 2085.76 1199.33 2084.03 1206.27L2112.81 1169.99C2129.74 1172.04 2156.74 1190.42 2131.59 1247.62C2132.05 1247.35 2132.51 1247.08 2132.96 1246.81C2166.85 1226.29 2150.73 1154.82 2112.81 1150.08Z" fill="#841700"/>
</g>
<defs>
<filter id="filter0_i" x="116.529" y="200.778" width="3791.52" height="1556.47" filterUnits="userSpaceOnUse" color-interpolation-filters="sRGB">
<feFlood flood-opacity="0" result="BackgroundImageFix"/>
<feBlend mode="normal" in="SourceGraphic" in2="BackgroundImageFix" result="shape"/>
<feColorMatrix in="SourceAlpha" type="matrix" values="0 0 0 0 0 0 0 0 0 0 0 0 0 0 0 0 0 0 127 0" result="hardAlpha"/>
<feOffset dx="80" dy="-40"/>
<feComposite in2="hardAlpha" operator="arithmetic" k2="-1" k3="1"/>
<feColorMatrix type="matrix" values="0 0 0 0 0.0941176 0 0 0 0 0.662745 0 0 0 0 0.0705882 0 0 0 1 0"/>
<feBlend mode="normal" in2="shape" result="effect1_innerShadow"/>
</filter>
<filter id="filter1_i" x="644.774" y="798.5" width="3243.27" height="938.69" filterUnits="userSpaceOnUse" color-interpolation-filters="sRGB">
<feFlood flood-opacity="0" result="BackgroundImageFix"/>
<feBlend mode="normal" in="SourceGraphic" in2="BackgroundImageFix" result="shape"/>
<feColorMatrix in="SourceAlpha" type="matrix" values="0 0 0 0 0 0 0 0 0 0 0 0 0 0 0 0 0 0 127 0" result="hardAlpha"/>
<feOffset dx="80" dy="-40"/>
<feComposite in2="hardAlpha" operator="arithmetic" k2="-1" k3="1"/>
<feColorMatrix type="matrix" values="0 0 0 0 0.0182119 0 0 0 0 0.458333 0 0 0 0 0 0 0 0 1 0"/>
<feBlend mode="normal" in2="shape" result="effect1_innerShadow"/>
</filter>
<linearGradient id="paint0_linear" x1="2000" y1="0" x2="2000" y2="2000" gradientUnits="userSpaceOnUse">
<stop stop-color="#68C0FF"/>
<stop offset="0.434702" stop-color="#0395FF"/>
</linearGradient>
<linearGradient id="paint1_linear" x1="977" y1="799" x2="977" y2="3019" gradientUnits="userSpaceOnUse">
<stop offset="0.239551" stop-color="#1869ED"/>
<stop offset="0.51005" stop-color="#0747A8"/>
</linearGradient>
<clipPath id="clip0">
<rect width="4000" height="2000" fill="white"/>
</clipPath>
</defs>
</svg>
