<svg width="4000" height="2000" viewBox="0 0 4000 2000" fill="none" xmlns="http://www.w3.org/2000/svg">
<g clip-path="url(#clip0)">
<rect width="4000" height="2000" fill="url(#paint0_linear)"/>
<path fill-rule="evenodd" clip-rule="evenodd" d="M358 1053.5C290.995 1111.13 229.583 1077.07 160.862 1038.95C112.253 1011.99 59.9871 983 -0.5 983V2004.5H4004V983C3982.03 983 3954.77 988.408 3922.34 994.84C3816.03 1015.93 3654.26 1048.02 3442 936.5C3151.2 783.725 3091.35 874.171 3048.3 939.219C3021.32 979.976 3000.95 1010.76 2934.5 965.5C2825.35 891.151 2858.53 850.233 2899.02 800.313C2922.52 771.34 2948.48 739.334 2950.5 696C2954.43 611.762 2857.96 580.78 2745.49 544.662C2700.42 530.186 2652.78 514.885 2608 495C2524.36 457.855 2487.42 477.84 2448.02 499.155C2413.71 517.72 2377.53 537.294 2307 521C2165.51 488.313 2094.67 516.679 1930.35 582.475L1930.35 582.476C1918.72 587.132 1906.62 591.977 1894 597C1741.2 657.8 1652.67 840 1627.5 923.5C1590.83 924.333 1497.1 903.6 1415.5 814C1349.53 741.562 1385.42 660.758 1412.64 599.454C1427.51 565.973 1439.8 538.308 1431.5 521C1354 369 1261 410 1251.5 425.5C1242 441 1199.5 475.5 1150.5 462C1101.5 448.5 1076.5 459.5 1073 475.5C1069.5 491.5 1055 495.5 999 510.5C970.548 518.121 947.388 510.383 914.371 499.352C882.404 488.671 841.196 474.903 777 469C677.622 459.862 630.726 506.685 601.424 535.941C592.248 545.103 584.797 552.542 578 556C555.2 567.6 539.5 566.5 534.5 564.5C441.5 541 338 684.5 328 781C324.265 817.044 347.456 847.02 370.528 876.841C409.225 926.859 447.587 976.442 358 1053.5ZM1553.5 1478.5C1529.54 1485.25 1388.91 1497.1 1358 1523C1327.09 1548.9 1498.34 1539.89 1456.5 1595.5C1417 1648 1656 1634.5 1656 1616C1656 1609.16 1627.63 1576.26 1624.75 1570.82C1619.83 1561.56 1661.36 1513.2 1670.5 1496.5C1685 1470 1603.5 1465 1553.5 1478.5ZM2583 1557.5C2413.5 1474.5 2580 1318.5 2769 1318.5C2873.63 1318.5 2871.94 1329.1 2869.75 1342.83C2868.04 1353.5 2866.03 1366.06 2913.5 1377C3022 1402 3074.5 1416 3046.5 1496.5C3018.5 1577 2752.5 1640.5 2583 1557.5Z" fill="url(#paint1_linear)" fill-opacity="0.4" style="mix-blend-mode:overlay"/>
<path fill-rule="evenodd" clip-rule="evenodd" d="M2019 166C2038.88 166 2055 156.374 2055 144.5C2055 132.626 2038.88 123 2019 123C1999.12 123 1983 132.626 1983 144.5C1983 156.374 1999.12 166 2019 166ZM3857 189.5C3857 196.956 3846.25 203 3833 203C3819.75 203 3809 196.956 3809 189.5C3809 182.044 3819.75 176 3833 176C3846.25 176 3857 182.044 3857 189.5ZM3551.5 475C3564.48 475 3575 470.523 3575 465C3575 459.477 3564.48 455 3551.5 455C3538.52 455 3528 459.477 3528 465C3528 470.523 3538.52 475 3551.5 475ZM3688 744C3688 788.183 3647.03 824 3596.5 824C3545.97 824 3505 788.183 3505 744C3505 699.817 3545.97 664 3596.5 664C3647.03 664 3688 699.817 3688 744ZM2622 1223C2656.24 1223 2684 1197.7 2684 1166.5C2684 1135.3 2656.24 1110 2622 1110C2587.76 1110 2560 1135.3 2560 1166.5C2560 1197.7 2587.76 1223 2622 1223ZM2109 1413C2109 1440.06 2076.76 1462 2037 1462C1997.24 1462 1965 1440.06 1965 1413C1965 1385.94 1997.24 1364 2037 1364C2076.76 1364 2109 1385.94 2109 1413ZM235.5 1481C261.734 1481 283 1466.9 283 1449.5C283 1432.1 261.734 1418 235.5 1418C209.266 1418 188 1432.1 188 1449.5C188 1466.9 209.266 1481 235.5 1481ZM583.5 1574C608.077 1574 628 1564.82 628 1553.5C628 1542.18 608.077 1533 583.5 1533C558.923 1533 539 1542.18 539 1553.5C539 1564.82 558.923 1574 583.5 1574ZM1257.5 1579C1282.08 1579 1302 1569.82 1302 1558.5C1302 1547.18 1282.08 1538 1257.5 1538C1232.92 1538 1213 1547.18 1213 1558.5C1213 1569.82 1232.92 1579 1257.5 1579ZM1554 1735.5C1554 1746.82 1534.08 1756 1509.5 1756C1484.92 1756 1465 1746.82 1465 1735.5C1465 1724.18 1484.92 1715 1509.5 1715C1534.08 1715 1554 1724.18 1554 1735.5ZM1127 1825C1174.5 1825 1213 1815.82 1213 1804.5C1213 1793.18 1174.5 1784 1127 1784C1079.5 1784 1041 1793.18 1041 1804.5C1041 1815.82 1079.5 1825 1127 1825ZM2263.57 1868.37C2258.76 1871.09 2247.33 1873 2234 1873C2216.33 1873 2202 1869.64 2202 1865.5C2202 1864.06 2203.73 1862.72 2206.73 1861.57C2206.25 1860.9 2206 1860.21 2206 1859.5C2206 1853.7 2222.79 1849 2243.5 1849C2264.21 1849 2281 1853.7 2281 1859.5C2281 1863.23 2274.05 1866.51 2263.57 1868.37ZM1852 1558.5C1852 1569.82 1832.08 1579 1807.5 1579C1782.92 1579 1763 1569.82 1763 1558.5C1763 1547.18 1782.92 1538 1807.5 1538C1832.08 1538 1852 1547.18 1852 1558.5ZM1041 1776.5C1041 1784.51 1027.12 1791 1010 1791C992.879 1791 979 1784.51 979 1776.5C979 1768.49 992.879 1762 1010 1762C1027.12 1762 1041 1768.49 1041 1776.5ZM731 1771C748.121 1771 762 1764.51 762 1756.5C762 1748.49 748.121 1742 731 1742C713.879 1742 700 1748.49 700 1756.5C700 1764.51 713.879 1771 731 1771ZM622 1865C622 1868.31 613.27 1871 602.5 1871C591.73 1871 583 1868.31 583 1865C583 1861.69 591.73 1859 602.5 1859C613.27 1859 622 1861.69 622 1865ZM556 1877C556 1880.31 547.27 1883 536.5 1883C525.73 1883 517 1880.31 517 1877C517 1873.69 525.73 1871 536.5 1871C547.27 1871 556 1873.69 556 1877ZM235.5 1825C246.27 1825 255 1822.31 255 1819C255 1815.69 246.27 1813 235.5 1813C224.73 1813 216 1815.69 216 1819C216 1822.31 224.73 1825 235.5 1825ZM483 1776.5C483 1789.48 460.614 1800 433 1800C405.386 1800 383 1789.48 383 1776.5C383 1763.52 405.386 1753 433 1753C460.614 1753 483 1763.52 483 1776.5ZM1081 1449.5C1081 1466.9 1059.73 1481 1033.5 1481C1007.27 1481 986 1466.9 986 1449.5C986 1432.1 1007.27 1418 1033.5 1418C1059.73 1418 1081 1432.1 1081 1449.5ZM116.5 1579C146.6 1579 171 1562.88 171 1543C171 1523.12 146.6 1507 116.5 1507C86.4005 1507 62 1523.12 62 1543C62 1562.88 86.4005 1579 116.5 1579ZM2192 1259.5C2192 1268.61 2185.06 1276 2176.5 1276C2167.94 1276 2161 1268.61 2161 1259.5C2161 1250.39 2167.94 1243 2176.5 1243C2185.06 1243 2192 1250.39 2192 1259.5ZM2213.5 1538C2236.97 1538 2256 1528.15 2256 1516C2256 1503.85 2236.97 1494 2213.5 1494C2190.03 1494 2171 1503.85 2171 1516C2171 1528.15 2190.03 1538 2213.5 1538ZM1912.5 299C1941.49 299 1965 289.374 1965 277.5C1965 265.626 1941.49 256 1912.5 256C1883.51 256 1860 265.626 1860 277.5C1860 289.374 1883.51 299 1912.5 299ZM2376 433.5C2376 445.374 2359.88 455 2340 455C2320.12 455 2304 445.374 2304 433.5C2304 421.626 2320.12 412 2340 412C2359.88 412 2376 421.626 2376 433.5ZM433 396C433 416.435 406.585 433 374 433C341.415 433 315 416.435 315 396C315 375.565 341.415 359 374 359C406.585 359 433 375.565 433 396ZM94 193C117.748 193 137 186.956 137 179.5C137 172.044 117.748 166 94 166C70.2518 166 51 172.044 51 179.5C51 186.956 70.2518 193 94 193ZM583 793.5C583 826.913 552.332 854 514.5 854C476.668 854 446 826.913 446 793.5C446 760.087 476.668 733 514.5 733C552.332 733 583 760.087 583 793.5ZM835 899C861.51 899 883 879.972 883 856.5C883 833.028 861.51 814 835 814C808.49 814 787 833.028 787 856.5C787 879.972 808.49 899 835 899ZM787 980.5C787 997.897 770.211 1012 749.5 1012C728.789 1012 712 997.897 712 980.5C712 963.103 728.789 949 749.5 949C770.211 949 787 963.103 787 980.5ZM3128.5 1113C3149.21 1113 3166 1098.9 3166 1081.5C3166 1064.1 3149.21 1050 3128.5 1050C3107.79 1050 3091 1064.1 3091 1081.5C3091 1098.9 3107.79 1113 3128.5 1113ZM700 1111.5C700 1131.66 681.196 1148 658 1148C634.804 1148 616 1131.66 616 1111.5C616 1091.34 634.804 1075 658 1075C681.196 1075 700 1091.34 700 1111.5ZM759.5 602C815.557 602 861 580.734 861 554.5C861 528.266 815.557 507 759.5 507C703.443 507 658 528.266 658 554.5C658 580.734 703.443 602 759.5 602ZM1010 716C1010 731.464 997.688 744 982.5 744C967.312 744 955 731.464 955 716C955 700.536 967.312 688 982.5 688C997.688 688 1010 700.536 1010 716ZM2665 835C2716.91 835 2759 795.825 2759 747.5C2759 699.175 2716.91 660 2665 660C2613.09 660 2571 699.175 2571 747.5C2571 795.825 2613.09 835 2665 835ZM2560 720.5C2560 741.211 2542.09 758 2520 758C2497.91 758 2480 741.211 2480 720.5C2480 699.789 2497.91 683 2520 683C2542.09 683 2560 699.789 2560 720.5ZM2165.5 620C2180.14 620 2192 609.926 2192 597.5C2192 585.074 2180.14 575 2165.5 575C2150.86 575 2139 585.074 2139 597.5C2139 609.926 2150.86 620 2165.5 620ZM3173 1642C3173 1653.6 3155.99 1663 3135 1663C3114.01 1663 3097 1653.6 3097 1642C3097 1630.4 3114.01 1621 3135 1621C3155.99 1621 3173 1630.4 3173 1642ZM3574.5 1552C3592.45 1552 3607 1540.14 3607 1525.5C3607 1510.86 3592.45 1499 3574.5 1499C3556.55 1499 3542 1510.86 3542 1525.5C3542 1540.14 3556.55 1552 3574.5 1552ZM3485 1169.5C3485 1190.21 3468.21 1207 3447.5 1207C3426.79 1207 3410 1190.21 3410 1169.5C3410 1148.79 3426.79 1132 3447.5 1132C3468.21 1132 3485 1148.79 3485 1169.5ZM2746.5 1012C2767.21 1012 2784 995.211 2784 974.5C2784 953.789 2767.21 937 2746.5 937C2725.79 937 2709 953.789 2709 974.5C2709 995.211 2725.79 1012 2746.5 1012ZM2701 1683.5C2701 1692.61 2691.6 1700 2680 1700C2668.4 1700 2659 1692.61 2659 1683.5C2659 1674.39 2668.4 1667 2680 1667C2691.6 1667 2701 1674.39 2701 1683.5ZM3869 1606C3869 1614.28 3856.24 1621 3840.5 1621C3824.76 1621 3812 1614.28 3812 1606C3812 1597.72 3824.76 1591 3840.5 1591C3856.24 1591 3869 1597.72 3869 1606ZM3940.5 1132C3959 1132 3974 1118.34 3974 1101.5C3974 1084.66 3959 1071 3940.5 1071C3922 1071 3907 1084.66 3907 1101.5C3907 1118.34 3922 1132 3940.5 1132ZM3359 1842C3359 1845.87 3337.96 1849 3312 1849C3286.04 1849 3265 1845.87 3265 1842C3265 1838.13 3286.04 1835 3312 1835C3337.96 1835 3359 1838.13 3359 1842ZM2946.5 1765C2965 1765 2980 1761.42 2980 1757C2980 1752.58 2965 1749 2946.5 1749C2928 1749 2913 1752.58 2913 1757C2913 1761.42 2928 1765 2946.5 1765ZM2823 1853.5C2823 1862.61 2799.94 1870 2771.5 1870C2743.06 1870 2720 1862.61 2720 1853.5C2720 1844.39 2743.06 1837 2771.5 1837C2799.94 1837 2823 1844.39 2823 1853.5ZM1207.5 1164C1282.89 1164 1344 1104.68 1344 1031.5C1344 958.322 1282.89 899 1207.5 899C1132.11 899 1071 958.322 1071 1031.5C1071 1104.68 1132.11 1164 1207.5 1164Z" fill="#C4C4C4"/>
<path fill-rule="evenodd" clip-rule="evenodd" d="M2019 166C2038.88 166 2055 156.374 2055 144.5C2055 132.626 2038.88 123 2019 123C1999.12 123 1983 132.626 1983 144.5C1983 156.374 1999.12 166 2019 166ZM3857 189.5C3857 196.956 3846.25 203 3833 203C3819.75 203 3809 196.956 3809 189.5C3809 182.044 3819.75 176 3833 176C3846.25 176 3857 182.044 3857 189.5ZM3551.5 475C3564.48 475 3575 470.523 3575 465C3575 459.477 3564.48 455 3551.5 455C3538.52 455 3528 459.477 3528 465C3528 470.523 3538.52 475 3551.5 475ZM3688 744C3688 788.183 3647.03 824 3596.5 824C3545.97 824 3505 788.183 3505 744C3505 699.817 3545.97 664 3596.5 664C3647.03 664 3688 699.817 3688 744ZM2622 1223C2656.24 1223 2684 1197.7 2684 1166.5C2684 1135.3 2656.24 1110 2622 1110C2587.76 1110 2560 1135.3 2560 1166.5C2560 1197.7 2587.76 1223 2622 1223ZM2109 1413C2109 1440.06 2076.76 1462 2037 1462C1997.24 1462 1965 1440.06 1965 1413C1965 1385.94 1997.24 1364 2037 1364C2076.76 1364 2109 1385.94 2109 1413ZM235.5 1481C261.734 1481 283 1466.9 283 1449.5C283 1432.1 261.734 1418 235.5 1418C209.266 1418 188 1432.1 188 1449.5C188 1466.9 209.266 1481 235.5 1481ZM583.5 1574C608.077 1574 628 1564.82 628 1553.5C628 1542.18 608.077 1533 583.5 1533C558.923 1533 539 1542.18 539 1553.5C539 1564.82 558.923 1574 583.5 1574ZM1257.5 1579C1282.08 1579 1302 1569.82 1302 1558.5C1302 1547.18 1282.08 1538 1257.5 1538C1232.92 1538 1213 1547.18 1213 1558.5C1213 1569.82 1232.92 1579 1257.5 1579ZM1554 1735.5C1554 1746.82 1534.08 1756 1509.5 1756C1484.92 1756 1465 1746.82 1465 1735.5C1465 1724.18 1484.92 1715 1509.5 1715C1534.08 1715 1554 1724.18 1554 1735.5ZM1127 1825C1174.5 1825 1213 1815.82 1213 1804.5C1213 1793.18 1174.5 1784 1127 1784C1079.5 1784 1041 1793.18 1041 1804.5C1041 1815.82 1079.5 1825 1127 1825ZM2263.57 1868.37C2258.76 1871.09 2247.33 1873 2234 1873C2216.33 1873 2202 1869.64 2202 1865.5C2202 1864.06 2203.73 1862.72 2206.73 1861.57C2206.25 1860.9 2206 1860.21 2206 1859.5C2206 1853.7 2222.79 1849 2243.5 1849C2264.21 1849 2281 1853.7 2281 1859.5C2281 1863.23 2274.05 1866.51 2263.57 1868.37ZM1852 1558.5C1852 1569.82 1832.08 1579 1807.5 1579C1782.92 1579 1763 1569.82 1763 1558.5C1763 1547.18 1782.92 1538 1807.5 1538C1832.08 1538 1852 1547.18 1852 1558.5ZM1041 1776.5C1041 1784.51 1027.12 1791 1010 1791C992.879 1791 979 1784.51 979 1776.5C979 1768.49 992.879 1762 1010 1762C1027.12 1762 1041 1768.49 1041 1776.5ZM731 1771C748.121 1771 762 1764.51 762 1756.5C762 1748.49 748.121 1742 731 1742C713.879 1742 700 1748.49 700 1756.5C700 1764.51 713.879 1771 731 1771ZM622 1865C622 1868.31 613.27 1871 602.5 1871C591.73 1871 583 1868.31 583 1865C583 1861.69 591.73 1859 602.5 1859C613.27 1859 622 1861.69 622 1865ZM556 1877C556 1880.31 547.27 1883 536.5 1883C525.73 1883 517 1880.31 517 1877C517 1873.69 525.73 1871 536.5 1871C547.27 1871 556 1873.69 556 1877ZM235.5 1825C246.27 1825 255 1822.31 255 1819C255 1815.69 246.27 1813 235.5 1813C224.73 1813 216 1815.69 216 1819C216 1822.31 224.73 1825 235.5 1825ZM483 1776.5C483 1789.48 460.614 1800 433 1800C405.386 1800 383 1789.48 383 1776.5C383 1763.52 405.386 1753 433 1753C460.614 1753 483 1763.52 483 1776.5ZM1081 1449.5C1081 1466.9 1059.73 1481 1033.5 1481C1007.27 1481 986 1466.9 986 1449.5C986 1432.1 1007.27 1418 1033.5 1418C1059.73 1418 1081 1432.1 1081 1449.5ZM116.5 1579C146.6 1579 171 1562.88 171 1543C171 1523.12 146.6 1507 116.5 1507C86.4005 1507 62 1523.12 62 1543C62 1562.88 86.4005 1579 116.5 1579ZM2192 1259.5C2192 1268.61 2185.06 1276 2176.5 1276C2167.94 1276 2161 1268.61 2161 1259.5C2161 1250.39 2167.94 1243 2176.5 1243C2185.06 1243 2192 1250.39 2192 1259.5ZM2213.5 1538C2236.97 1538 2256 1528.15 2256 1516C2256 1503.85 2236.97 1494 2213.5 1494C2190.03 1494 2171 1503.85 2171 1516C2171 1528.15 2190.03 1538 2213.5 1538ZM1912.5 299C1941.49 299 1965 289.374 1965 277.5C1965 265.626 1941.49 256 1912.5 256C1883.51 256 1860 265.626 1860 277.5C1860 289.374 1883.51 299 1912.5 299ZM2376 433.5C2376 445.374 2359.88 455 2340 455C2320.12 455 2304 445.374 2304 433.5C2304 421.626 2320.12 412 2340 412C2359.88 412 2376 421.626 2376 433.5ZM433 396C433 416.435 406.585 433 374 433C341.415 433 315 416.435 315 396C315 375.565 341.415 359 374 359C406.585 359 433 375.565 433 396ZM94 193C117.748 193 137 186.956 137 179.5C137 172.044 117.748 166 94 166C70.2518 166 51 172.044 51 179.5C51 186.956 70.2518 193 94 193ZM583 793.5C583 826.913 552.332 854 514.5 854C476.668 854 446 826.913 446 793.5C446 760.087 476.668 733 514.5 733C552.332 733 583 760.087 583 793.5ZM835 899C861.51 899 883 879.972 883 856.5C883 833.028 861.51 814 835 814C808.49 814 787 833.028 787 856.5C787 879.972 808.49 899 835 899ZM787 980.5C787 997.897 770.211 1012 749.5 1012C728.789 1012 712 997.897 712 980.5C712 963.103 728.789 949 749.5 949C770.211 949 787 963.103 787 980.5ZM3128.5 1113C3149.21 1113 3166 1098.9 3166 1081.5C3166 1064.1 3149.21 1050 3128.5 1050C3107.79 1050 3091 1064.1 3091 1081.5C3091 1098.9 3107.79 1113 3128.5 1113ZM700 1111.5C700 1131.66 681.196 1148 658 1148C634.804 1148 616 1131.66 616 1111.5C616 1091.34 634.804 1075 658 1075C681.196 1075 700 1091.34 700 1111.5ZM759.5 602C815.557 602 861 580.734 861 554.5C861 528.266 815.557 507 759.5 507C703.443 507 658 528.266 658 554.5C658 580.734 703.443 602 759.5 602ZM1010 716C1010 731.464 997.688 744 982.5 744C967.312 744 955 731.464 955 716C955 700.536 967.312 688 982.5 688C997.688 688 1010 700.536 1010 716ZM2665 835C2716.91 835 2759 795.825 2759 747.5C2759 699.175 2716.91 660 2665 660C2613.09 660 2571 699.175 2571 747.5C2571 795.825 2613.09 835 2665 835ZM2560 720.5C2560 741.211 2542.09 758 2520 758C2497.91 758 2480 741.211 2480 720.5C2480 699.789 2497.91 683 2520 683C2542.09 683 2560 699.789 2560 720.5ZM2165.5 620C2180.14 620 2192 609.926 2192 597.5C2192 585.074 2180.14 575 2165.5 575C2150.86 575 2139 585.074 2139 597.5C2139 609.926 2150.86 620 2165.5 620ZM3173 1642C3173 1653.6 3155.99 1663 3135 1663C3114.01 1663 3097 1653.6 3097 1642C3097 1630.4 3114.01 1621 3135 1621C3155.99 1621 3173 1630.4 3173 1642ZM3574.5 1552C3592.45 1552 3607 1540.14 3607 1525.5C3607 1510.86 3592.45 1499 3574.5 1499C3556.55 1499 3542 1510.86 3542 1525.5C3542 1540.14 3556.55 1552 3574.5 1552ZM3485 1169.5C3485 1190.21 3468.21 1207 3447.5 1207C3426.79 1207 3410 1190.21 3410 1169.5C3410 1148.79 3426.79 1132 3447.5 1132C3468.21 1132 3485 1148.79 3485 1169.5ZM2746.5 1012C2767.21 1012 2784 995.211 2784 974.5C2784 953.789 2767.21 937 2746.5 937C2725.79 937 2709 953.789 2709 974.5C2709 995.211 2725.79 1012 2746.5 1012ZM2701 1683.5C2701 1692.61 2691.6 1700 2680 1700C2668.4 1700 2659 1692.61 2659 1683.5C2659 1674.39 2668.4 1667 2680 1667C2691.6 1667 2701 1674.39 2701 1683.5ZM3869 1606C3869 1614.28 3856.24 1621 3840.5 1621C3824.76 1621 3812 1614.28 3812 1606C3812 1597.72 3824.76 1591 3840.5 1591C3856.24 1591 3869 1597.72 3869 1606ZM3940.5 1132C3959 1132 3974 1118.34 3974 1101.5C3974 1084.66 3959 1071 3940.5 1071C3922 1071 3907 1084.66 3907 1101.5C3907 1118.34 3922 1132 3940.5 1132ZM3359 1842C3359 1845.87 3337.96 1849 3312 1849C3286.04 1849 3265 1845.87 3265 1842C3265 1838.13 3286.04 1835 3312 1835C3337.96 1835 3359 1838.13 3359 1842ZM2946.5 1765C2965 1765 2980 1761.42 2980 1757C2980 1752.58 2965 1749 2946.5 1749C2928 1749 2913 1752.58 2913 1757C2913 1761.42 2928 1765 2946.5 1765ZM2823 1853.5C2823 1862.61 2799.94 1870 2771.5 1870C2743.06 1870 2720 1862.61 2720 1853.5C2720 1844.39 2743.06 1837 2771.5 1837C2799.94 1837 2823 1844.39 2823 1853.5ZM1207.5 1164C1282.89 1164 1344 1104.68 1344 1031.5C1344 958.322 1282.89 899 1207.5 899C1132.11 899 1071 958.322 1071 1031.5C1071 1104.68 1132.11 1164 1207.5 1164Z" fill="url(#paint2_linear)"/>
<g style="mix-blend-mode:overlay" opacity="0.9">
<path fill-rule="evenodd" clip-rule="evenodd" d="M4000 0H0V1107.8C182.142 1099.81 314.132 1029.89 448.696 958.6C597.751 879.637 749.966 799 977 799C1196.09 799 1342.1 878.612 1486.02 957.089L1486.03 957.09C1623.59 1032.1 1759.24 1106.07 1955 1108.5C2160.9 1111.06 2303.3 1035.63 2448.7 958.6C2597.75 879.637 2749.97 799 2977 799C3196.09 799 3342.1 878.612 3486.03 957.089C3623.58 1032.1 3759.24 1106.07 3955 1108.5C3970.34 1108.69 3985.33 1108.45 4000 1107.8V0Z" fill="url(#paint3_linear)"/>
</g>
<path d="M1998.14 880.043C1996.67 952.94 1949.51 1011.11 1892.81 1009.96C1836.12 1008.82 1791.35 948.794 1792.82 875.897C1794.29 803 1841.45 744.834 1898.14 745.978C1954.84 747.123 1999.61 807.146 1998.14 880.043Z" fill="#980016"/>
<path fill-rule="evenodd" clip-rule="evenodd" d="M1819 835.008C1811.85 851.529 1807.6 870.554 1807.19 890.862C1805.88 955.659 1844.21 1008.98 1892.81 1009.96C1941.41 1010.95 1981.87 959.212 1983.18 894.415C1983.61 872.837 1979.65 852.532 1972.38 835.008L1819 835.008Z" fill="white"/>
<path d="M1867.17 858.057C1876.28 852.978 1886.8 851.048 1897.11 852.569C1907.42 854.09 1916.94 858.975 1924.19 866.467C1931.44 873.959 1936.02 883.636 1937.2 893.996C1938.39 904.356 1936.12 914.817 1930.75 923.755C1925.38 932.692 1917.21 939.605 1907.51 943.418C1897.81 947.232 1887.12 947.733 1877.11 944.844C1867.09 941.954 1858.31 935.836 1852.13 927.44C1845.95 919.044 1842.72 908.841 1842.93 898.416L1890.21 899.38L1867.17 858.057Z" fill="black"/>
<path d="M2239.05 880.043C2237.58 952.94 2190.42 1011.11 2133.72 1009.96C2077.02 1008.82 2032.25 948.794 2033.73 875.897C2035.2 803 2082.35 744.834 2139.05 745.978C2195.75 747.123 2240.52 807.146 2239.05 880.043Z" fill="#980016"/>
<path fill-rule="evenodd" clip-rule="evenodd" d="M2059.91 835.008C2052.76 851.529 2048.5 870.554 2048.09 890.862C2046.79 955.659 2085.12 1008.98 2133.72 1009.96C2182.32 1010.95 2222.78 959.212 2224.08 894.415C2224.52 872.837 2220.56 852.532 2213.29 835.008L2059.91 835.008Z" fill="white"/>
<path d="M2108.08 858.057C2117.19 852.978 2127.71 851.048 2138.02 852.569C2148.33 854.09 2157.85 858.975 2165.1 866.467C2172.35 873.959 2176.93 883.636 2178.11 893.996C2179.3 904.356 2177.03 914.817 2171.66 923.755C2166.29 932.692 2158.12 939.605 2148.42 943.418C2138.72 947.232 2128.03 947.733 2118.02 944.844C2108 941.954 2099.22 935.836 2093.04 927.44C2086.86 919.044 2083.62 908.841 2083.84 898.416L2131.12 899.38L2108.08 858.057Z" fill="black"/>
<rect x="1913.81" y="1098.82" width="219.846" height="29.3128" rx="14.6564" fill="#4F000B"/>
<rect x="1781.91" y="747.069" width="219.846" height="43.9692" rx="21.9846" fill="#4F000B"/>
<rect x="2031.07" y="747.069" width="219.846" height="43.9692" rx="21.9846" fill="#4F000B"/>
</g>
<defs>
<linearGradient id="paint0_linear" x1="1858.5" y1="2.28899e-05" x2="1858.5" y2="2024.16" gradientUnits="userSpaceOnUse">
<stop stop-color="#FF4D00"/>
<stop offset="1" stop-color="#7B0000"/>
</linearGradient>
<linearGradient id="paint1_linear" x1="2001.75" y1="408.633" x2="2001.75" y2="2004.5" gradientUnits="userSpaceOnUse">
<stop/>
<stop offset="1" stop-opacity="0"/>
</linearGradient>
<linearGradient id="paint2_linear" x1="2238.82" y1="-486.963" x2="2117.99" y2="2204.58" gradientUnits="userSpaceOnUse">
<stop stop-color="#CD0000"/>
<stop offset="1" stop-color="#5F0000"/>
</linearGradient>
<linearGradient id="paint3_linear" x1="1959.5" y1="1977" x2="1959.5" y2="-0.000117838" gradientUnits="userSpaceOnUse">
<stop stop-color="white"/>
<stop offset="1" stop-color="white" stop-opacity="0"/>
</linearGradient>
<clipPath id="clip0">
<rect width="4000" height="2000" fill="white"/>
</clipPath>
</defs>
</svg>
