<svg width="4000" height="2000" viewBox="0 0 4000 2000" fill="none" xmlns="http://www.w3.org/2000/svg">
<g clip-path="url(#clip0)">
<rect width="4000" height="2000" fill="url(#paint0_linear)"/>
<g style="mix-blend-mode:overlay" opacity="0.3">
<path d="M4000 1787.28C3920.5 1787.11 3841.03 1791.65 3744.44 1800.98C3589.97 1815.9 3486.87 1792.48 3391.84 1762.35C3372.92 1756.35 3354.14 1750.01 3335.23 1743.63L3335.19 1743.61L3335.16 1743.6L3335.11 1743.59L3335.1 1743.58C3259.48 1718.05 3181.68 1691.77 3082.78 1683.29C2907.68 1668.28 2694.75 1687.68 2526.64 1710.54C2442.37 1721.99 2368.95 1734.38 2316.56 1743.9C2289.03 1748.91 2261.59 1754.38 2234.15 1759.85H2234.15L2234.14 1759.85C2206.72 1765.32 2179.29 1770.78 2151.77 1775.79C2042.94 1795.57 1957.06 1795.57 1848.23 1775.79C1820.71 1770.78 1793.28 1765.32 1765.84 1759.85L1765.84 1759.85C1738.4 1754.38 1710.95 1748.91 1683.42 1743.9C1631.04 1734.38 1557.61 1721.99 1473.34 1710.54C1305.23 1687.68 1092.32 1668.28 917.219 1683.29C818.324 1691.77 740.515 1718.05 664.897 1743.58L664.891 1743.59L664.844 1743.6L664.812 1743.61L664.766 1743.63C645.86 1750.01 627.083 1756.35 608.156 1762.35C513.127 1792.48 410.031 1815.9 255.562 1800.98C158.975 1791.65 79.5003 1787.11 0 1787.28V1849.78C84.2646 1849.61 168.279 1854.26 266.203 1863.72C429.931 1879.53 539.748 1854.44 638.234 1823.21C658.589 1816.76 678.293 1810.12 697.766 1803.55L697.828 1803.53L697.859 1803.52L697.901 1803.51C772.937 1778.21 844.602 1754.05 937.359 1746.1C1106.73 1731.58 1314.92 1750.34 1481.8 1773.02C1565.02 1784.33 1637.56 1796.57 1689.27 1805.97C1716.79 1810.97 1744.22 1816.44 1771.64 1821.91L1771.65 1821.91C1799.09 1827.38 1826.53 1832.85 1854.06 1837.85C1958.83 1856.9 2041.17 1856.9 2145.94 1837.85C2173.47 1832.85 2200.91 1827.38 2228.34 1821.91C2255.78 1816.44 2283.21 1810.97 2310.73 1805.97C2362.44 1796.57 2434.98 1784.33 2518.2 1773.02C2685.08 1750.34 2893.25 1731.58 3062.62 1746.1C3155.4 1754.05 3227.09 1778.22 3302.14 1803.52L3302.17 1803.53L3302.23 1803.55L3302.77 1803.73C3322.07 1810.24 3341.58 1816.82 3361.75 1823.21C3460.24 1854.44 3570.07 1879.53 3733.8 1863.72C3831.72 1854.26 3915.74 1849.61 4000 1849.78V1787.28Z" fill="black"/>
</g>
<g style="mix-blend-mode:overlay" opacity="0.3">
<path d="M4000 1523.09C3934.52 1522.54 3870.4 1533.01 3783.56 1554.06C3659.3 1584.17 3501.42 1607.58 3358.77 1585.07C3271.02 1571.22 3155.03 1535.66 3034.78 1498.69L3032.69 1498.05C2915.3 1461.96 2793.87 1424.63 2699.45 1409.8C2549.12 1386.19 2364.23 1412.4 2220.42 1442.95C2045.54 1480.1 1956.61 1480.56 1779.58 1442.95C1635.77 1412.4 1450.88 1386.19 1300.55 1409.8C1206.13 1424.63 1084.7 1461.96 967.312 1498.05L965.219 1498.69C844.968 1535.66 728.984 1571.22 641.234 1585.07C498.58 1607.58 340.698 1584.17 216.438 1554.06C129.602 1533.01 65.4773 1522.54 0 1523.09V1604C63.1226 1603.44 124.985 1613.9 212.188 1635.04C343.006 1666.74 515.858 1693.22 675.812 1667.98C769.958 1653.13 891.003 1615.92 1008.12 1579.91L1011.06 1579.01C1131.31 1542.04 1247.28 1506.51 1335.05 1492.72C1468.1 1471.83 1638.16 1494.84 1778.44 1524.64C1954.58 1562.06 2048.29 1561.45 2221.56 1524.64C2361.84 1494.84 2531.88 1471.83 2664.94 1492.72C2752.7 1506.51 2868.69 1542.04 2988.94 1579.01L2991.88 1579.91L2991.88 1579.91C3109 1615.92 3230.04 1653.13 3324.19 1667.98C3484.14 1693.22 3656.99 1666.74 3787.81 1635.04C3875.01 1613.9 3936.88 1603.44 4000 1604V1523.09Z" fill="black"/>
</g>
<g style="mix-blend-mode:overlay" opacity="0.3">
<path d="M4000 1308.31C3943.05 1307.73 3887.78 1317.11 3801.14 1336.08C3676.12 1363.46 3522.27 1382.4 3389.17 1357.17C3305.66 1341.34 3195.56 1302.88 3077.77 1261.54C3064.74 1256.96 3051.7 1252.35 3038.64 1247.72C2942.69 1213.73 2845.72 1179.39 2745.75 1160.52C2589.75 1131.08 2394.91 1154.85 2246.27 1183.03C2052.46 1219.76 1947.54 1219.76 1753.73 1183.03C1605.09 1154.85 1410.24 1131.08 1254.25 1160.52C1154.28 1179.39 1057.31 1213.73 961.359 1247.72C948.302 1252.35 935.259 1256.96 922.234 1261.54C804.442 1302.88 694.343 1341.34 610.828 1357.17C477.732 1382.4 323.88 1363.46 198.859 1336.08C112.217 1317.11 56.954 1307.73 0 1308.31V1426.4C56.9051 1425.94 113.228 1434.25 191.219 1451.33C328.224 1481.34 511.032 1505.64 676.547 1474.27C776.383 1455.35 873.213 1421.05 969.047 1387.09L969.062 1387.09L969.078 1387.08C982.219 1382.43 995.345 1377.78 1008.45 1373.17C1126.24 1331.83 1236.34 1293.41 1319.86 1277.64C1443.53 1254.3 1609.57 1272.49 1751.89 1299.46L1757.42 1300.51C1949.61 1336.93 2050.39 1336.93 2242.58 1300.51L2248.11 1299.46C2390.43 1272.49 2556.47 1254.3 2680.14 1277.64C2763.66 1293.41 2873.76 1331.83 2991.55 1373.17C3004.66 1377.78 3017.78 1382.43 3030.92 1387.08L3030.94 1387.09L3030.95 1387.09L3030.96 1387.09C3126.79 1421.05 3223.62 1455.35 3323.45 1474.27C3488.97 1505.64 3671.78 1481.34 3808.78 1451.33C3886.77 1434.25 3943.09 1425.94 4000 1426.4V1308.31Z" fill="black"/>
</g>
<g style="mix-blend-mode:overlay" opacity="0.3">
<path d="M4000 504.215C3945 503.699 3891.17 512.153 3812.44 529.359C3684.13 557.4 3522.75 578.183 3381.81 553.343C3295.12 538.064 3182.46 500.616 3065.67 461.703L3063.64 461.027C2949.63 423.04 2831.69 383.747 2738.41 367.374C2589.88 341.306 2401.04 364.445 2253.02 392.597C2061.7 428.982 1941.63 429.616 1746.98 392.597C1598.97 364.445 1410.11 341.306 1261.58 367.374C1168.29 383.747 1050.36 423.04 936.344 461.027L934.328 461.703C817.535 500.616 704.864 538.064 618.172 553.343C477.238 578.183 315.874 557.4 187.562 529.359C108.827 512.153 54.9984 503.699 0 504.215V585.269C57.1782 584.81 113.77 593.165 192.328 610.333C327.412 639.853 504.178 663.459 662.203 635.607C755.214 619.214 872.779 580.043 986.531 542.142L989.375 541.192C1106.16 502.281 1218.84 464.866 1305.55 449.648C1437.01 426.575 1610.57 446.764 1754.95 474.224C1941.09 509.625 2056.18 510.145 2245.05 474.224C2389.43 446.764 2562.99 426.575 2694.45 449.648C2781.16 464.866 2893.84 502.281 3010.62 541.192L3013.47 542.141L3013.47 542.142C3127.22 580.043 3244.79 619.214 3337.8 635.607C3495.82 663.459 3672.59 639.853 3807.67 610.333C3886.23 593.164 3942.82 584.809 4000 585.269V504.215Z" fill="black"/>
</g>
<g style="mix-blend-mode:overlay" opacity="0.3">
<path d="M0 201.442V264.377C30.3734 263.511 59.6564 271.486 110.094 288.304C215.063 323.306 352.596 353.053 475.859 327.29C548.457 312.116 640.423 273.168 729.609 235.395L731.734 234.496C823.166 195.773 911.589 158.448 979.594 144.303C1082.76 122.844 1218.46 149.001 1331.17 182.18C1387.02 198.619 1436.21 216.469 1471.41 230.202C1503.92 242.886 1535.73 257.259 1567.53 271.631L1567.54 271.632C1612.04 291.739 1656.53 311.841 1702.91 327.306C1897.07 392.049 2102.93 392.049 2297.09 327.306C2349.86 309.712 2395.09 290.554 2427.2 275.764C2506.7 239.151 2584.34 207.05 2668.83 182.18C2781.54 149.001 2917.23 122.844 3020.41 144.303C3088.41 158.448 3176.83 195.773 3268.26 234.496L3270.39 235.395C3359.58 273.168 3451.54 312.116 3524.14 327.29C3647.4 353.053 3784.92 323.306 3889.89 288.304C3940.33 271.485 3969.62 263.509 4000 264.377V-1L0 -1V201.442Z" fill="black"/>
</g>
<g style="mix-blend-mode:overlay" opacity="0.3">
<path d="M4000 798.274C3901.59 797.855 3803.88 810.807 3685.12 836.925L3685.11 836.927L3682.39 837.525C3546.09 867.5 3415.35 896.168 3323.59 905.032C3173.75 919.506 3074.02 896.924 2980.72 867.342C2962.53 861.575 2944.27 855.404 2925.71 849.129L2925.69 849.124L2925.45 849.043L2925.44 849.038L2925.43 849.036L2925.43 849.036C2849.6 823.402 2768.68 796.048 2666.7 787.306C2255.66 752.071 1740.61 752.391 1333.3 787.306C1231.32 796.048 1150.4 823.403 1074.57 849.037L1074.56 849.038L1074.55 849.043L1074.53 849.047L1074.2 849.161C1055.67 855.425 1037.44 861.584 1019.28 867.342C925.981 896.924 826.246 919.506 676.406 905.032C584.65 896.168 453.896 867.5 317.594 837.525L314.875 836.927V836.925C196.117 810.807 98.4093 797.855 0 798.274V921.155C101.628 920.756 202.95 933.963 324.875 960.777L328.531 961.583C460.87 990.688 598.27 1020.9 697.688 1030.51C866.045 1046.77 979.238 1020.84 1079.45 989.061C1100.54 982.376 1120.69 975.586 1140.43 968.938L1140.55 968.899C1215.24 943.738 1283.88 920.616 1373.61 912.925C1755.9 880.154 2240.76 879.868 2626.39 912.925C2716.12 920.616 2784.76 943.738 2859.45 968.899L2859.61 968.95C2879.33 975.594 2899.48 982.38 2920.55 989.061C3020.76 1020.84 3133.96 1046.77 3302.31 1030.51C3401.73 1020.9 3539.13 990.688 3671.47 961.583L3675.12 960.777C3797.05 933.963 3898.37 920.756 4000 921.155V798.274Z" fill="black"/>
</g>
<g style="mix-blend-mode:overlay" opacity="0.9">
<path fill-rule="evenodd" clip-rule="evenodd" d="M4000 0H0V1107.8C182.142 1099.81 314.132 1029.89 448.696 958.6C597.751 879.637 749.966 799 977 799C1196.09 799 1342.1 878.612 1486.02 957.089L1486.03 957.09C1623.59 1032.1 1759.24 1106.07 1955 1108.5C2160.9 1111.06 2303.3 1035.63 2448.7 958.6C2597.75 879.637 2749.97 799 2977 799C3196.09 799 3342.1 878.612 3486.03 957.089C3623.58 1032.1 3759.24 1106.07 3955 1108.5C3970.34 1108.69 3985.33 1108.45 4000 1107.8V0Z" fill="url(#paint1_linear)"/>
</g>
<path d="M2018.73 896.127C1995.8 965.719 1927.3 1009.42 1865.74 993.741C1804.18 978.06 1772.86 908.933 1795.79 839.342C1818.72 769.751 1887.22 726.048 1948.78 741.728C2010.34 757.409 2041.66 826.536 2018.73 896.127Z" fill="#980016"/>
<ellipse rx="93.5374" ry="125.039" transform="matrix(1.02145 0.26018 -0.295159 0.895764 1902.65 881.738)" fill="white"/>
<path d="M1856.82 799.921C1868.25 797.386 1880.3 798.241 1891.11 802.353C1901.92 806.464 1910.89 813.603 1916.61 822.658C1922.33 831.713 1924.5 842.178 1922.76 852.427C1921.02 862.676 1915.49 872.134 1907.01 879.331C1898.54 886.529 1887.59 891.063 1875.89 892.229C1864.18 893.394 1852.37 891.126 1842.28 885.777C1832.19 880.428 1824.4 872.298 1820.11 862.649C1815.81 853.001 1815.27 842.375 1818.55 832.423L1869.89 845.51L1856.82 799.921Z" fill="black"/>
<path d="M2297.4 967.11C2274.47 1036.7 2205.98 1080.4 2144.41 1064.72C2082.85 1049.04 2051.53 979.916 2074.47 910.325C2097.4 840.734 2165.89 797.03 2227.45 812.711C2289.02 828.392 2320.33 897.519 2297.4 967.11Z" fill="#980016"/>
<ellipse rx="93.5374" ry="125.039" transform="matrix(1.02145 0.26018 -0.295159 0.895764 2181.32 952.72)" fill="white"/>
<path d="M2135.5 870.903C2146.92 868.369 2158.98 869.224 2169.79 873.335C2180.6 877.447 2189.56 884.585 2195.29 893.64C2201.01 902.696 2203.17 913.161 2201.44 923.409C2199.7 933.658 2194.16 943.116 2185.69 950.314C2177.21 957.512 2166.27 962.045 2154.56 963.211C2142.86 964.377 2131.04 962.109 2120.96 956.76C2110.87 951.411 2103.07 943.28 2098.78 933.632C2094.49 923.983 2093.94 913.357 2097.22 903.405L2148.56 916.492L2135.5 870.903Z" fill="black"/>
<path d="M2006.14 1183.16C1991.81 1226.65 1949 1253.97 1910.52 1244.16C1872.04 1234.36 1852.47 1191.16 1866.8 1147.67C1881.13 1104.17 1923.94 1076.86 1962.42 1086.66C2000.9 1096.46 2020.47 1139.66 2006.14 1183.16Z" fill="#980016"/>
<ellipse rx="58.4609" ry="78.1495" transform="matrix(1.02145 0.26018 -0.295159 0.895764 1933.59 1174.16)" fill="#5A0E00"/>
<path fill-rule="evenodd" clip-rule="evenodd" d="M1993.3 1189.37C1982.19 1223.09 1952.59 1246.06 1923.32 1245.81C1923.45 1240.37 1924.4 1234.78 1926.24 1229.2C1935.79 1200.2 1965.82 1182.37 1993.3 1189.37C1993.3 1189.37 1993.3 1189.37 1993.3 1189.37Z" fill="#980016"/>
<path d="M1984.59 657.924C1964.28 660.011 1944.93 667.2 1933.71 673.064C1925.79 677.203 1915.48 675.237 1910.67 668.673C1905.87 662.108 1908.4 653.431 1916.32 649.292C1930.84 641.702 1954.88 632.723 1981.07 630.031C2007.51 627.314 2038.13 630.904 2061.98 650.935C2068.46 656.382 2068.35 665.278 2061.74 670.806C2055.13 676.334 2044.51 676.4 2038.02 670.954C2023.66 658.883 2004.65 655.863 1984.59 657.924Z" fill="#5A0E00"/>
<path d="M2314.55 764.789C2297.18 755.297 2276.96 750.323 2264.03 748.765C2254.9 747.666 2248.22 740.479 2249.12 732.713C2250.01 724.947 2258.14 719.543 2267.26 720.643C2284 722.659 2309.17 728.803 2331.57 741.046C2354.17 753.403 2375.58 772.981 2380.04 801.711C2381.25 809.523 2374.87 816.425 2365.78 817.126C2356.68 817.827 2348.33 812.063 2347.12 804.251C2344.43 786.939 2331.71 774.166 2314.55 764.789Z" fill="#5A0E00"/>
</g>
<defs>
<linearGradient id="paint0_linear" x1="1858.5" y1="2.28899e-05" x2="1858.5" y2="2024.16" gradientUnits="userSpaceOnUse">
<stop stop-color="#FFB26B"/>
<stop offset="1" stop-color="#FF6B00"/>
</linearGradient>
<linearGradient id="paint1_linear" x1="1959.5" y1="1977" x2="1959.5" y2="-0.000117838" gradientUnits="userSpaceOnUse">
<stop stop-color="white"/>
<stop offset="1" stop-color="white" stop-opacity="0"/>
</linearGradient>
<clipPath id="clip0">
<rect width="4000" height="2000" fill="white"/>
</clipPath>
</defs>
</svg>
