<svg width="4000" height="2000" viewBox="0 0 4000 2000" fill="none" xmlns="http://www.w3.org/2000/svg">
<g clip-path="url(#clip0)">
<rect width="4000" height="2000" fill="url(#paint0_linear)"/>
<path d="M1487.02 884.13C1343.1 841.87 1197.09 799 978 799C846.896 799 758.836 843.597 673.097 887.018C579.914 934.209 489.474 980.012 349.5 965.664C274.307 957.956 227.582 932.394 181.776 907.334C131.931 880.064 83.1726 853.39 0 850.965C-95.6714 848.175 -152.918 879.322 -211.807 911.362C-265.427 940.536 -320.41 970.45 -407 976.164C-527.968 984.147 -574.018 949.518 -628.15 908.811C-695 858.54 -774.176 799 -1022 799C-1249.03 799 -1401.25 842.422 -1550.3 884.943C-1695.7 926.422 -1838.1 967.042 -2044 965.664C-2239.76 964.353 -2375.42 924.521 -2512.97 884.13C-2656.9 841.87 -2802.91 799 -3022 799C-3153.1 799 -3241.16 843.597 -3326.9 887.018C-3420.09 934.209 -3510.53 980.012 -3650.5 965.664C-3807.52 949.569 -4000 850.965 -4000 850.965V2152.5H7912V850.965C7912 850.965 7719.52 949.569 7562.5 965.664C7422.53 980.012 7332.09 934.209 7238.9 887.018C7153.16 843.597 7065.1 799 6934 799C6714.91 799 6568.9 841.87 6424.97 884.13C6287.42 924.521 6151.76 964.353 5956 965.664C5750.1 967.042 5607.7 926.422 5462.3 884.943C5313.25 842.422 5161.03 799 4934 799C4686.18 799 4607 858.54 4540.15 908.811C4486.02 949.518 4439.97 984.147 4319 976.164C4232.41 970.45 4177.43 940.536 4123.81 911.362C4064.92 879.322 4007.67 848.175 3912 850.965C3828.83 853.39 3780.07 880.064 3730.22 907.334C3684.42 932.394 3637.69 957.956 3562.5 965.664C3422.53 980.012 3332.09 934.209 3238.9 887.018C3153.16 843.597 3065.1 799 2934 799C2714.91 799 2568.9 841.87 2424.97 884.13C2287.42 924.521 2151.76 964.353 1956 965.664C1760.24 964.353 1624.58 924.521 1487.02 884.13Z" fill="url(#paint1_linear)"/>
<ellipse cx="1336" cy="868.5" rx="221" ry="189.5" fill="#0196FF"/>
<ellipse cx="715" cy="1205.5" rx="123" ry="105.5" fill="#0196FF"/>
<ellipse cx="838" cy="365.5" rx="123" ry="105.5" fill="#0196FF"/>
<ellipse cx="3529" cy="337.5" rx="221" ry="189.5" fill="#0196FF"/>
<ellipse cx="217.5" cy="306.5" rx="69.5" ry="68.5" fill="#0196FF"/>
<ellipse cx="522.5" cy="719.5" rx="69.5" ry="68.5" fill="#0196FF"/>
<ellipse cx="1184.5" cy="1544.5" rx="69.5" ry="68.5" fill="#0196FF"/>
<ellipse cx="2333.5" cy="880.5" rx="69.5" ry="68.5" fill="#0196FF"/>
<ellipse cx="3352.5" cy="1351.5" rx="69.5" ry="68.5" fill="#0196FF"/>
<ellipse cx="2974.5" cy="1572.5" rx="147.5" ry="145.5" fill="#0196FF"/>
<ellipse cx="3135.5" cy="803.5" rx="147.5" ry="145.5" fill="#0196FF"/>
<ellipse cx="2209.5" cy="306.5" rx="147.5" ry="145.5" fill="#0196FF"/>
<ellipse cx="3679.5" cy="1643" rx="150.5" ry="129" fill="#0196FF"/>
<ellipse cx="2731.5" cy="527.5" rx="77.5" ry="66.5" fill="#0196FF"/>
<ellipse cx="2263.5" cy="1438" rx="157.5" ry="135" fill="#0196FF"/>
<ellipse cx="1721" cy="433" rx="44" ry="38" fill="#0196FF"/>
<ellipse cx="2776" cy="1138" rx="44" ry="38" fill="#0196FF"/>
<ellipse cx="3573" cy="948.5" rx="28" ry="24.5" fill="#0196FF"/>
<ellipse cx="388" cy="1476" rx="44" ry="38" fill="#0196FF"/>
<ellipse cx="1900.5" cy="679" rx="32.5" ry="28" fill="#0196FF"/>
<ellipse cx="1732.5" cy="1283" rx="32.5" ry="28" fill="#0196FF"/>
<ellipse cx="217.5" cy="679" rx="32.5" ry="28" fill="#0196FF"/>
</g>
<defs>
<linearGradient id="paint0_linear" x1="2000" y1="0" x2="2000" y2="2000" gradientUnits="userSpaceOnUse">
<stop stop-color="#85E1FE"/>
<stop offset="0.434702" stop-color="#85E2FC"/>
</linearGradient>
<linearGradient id="paint1_linear" x1="1956" y1="799" x2="1956" y2="3627" gradientUnits="userSpaceOnUse">
<stop stop-color="#5FC3F1"/>
<stop offset="1" stop-color="#0196FF"/>
</linearGradient>
<clipPath id="clip0">
<rect width="4000" height="2000" fill="white"/>
</clipPath>
</defs>
</svg>
