<svg width="4000" height="2000" viewBox="0 0 4000 2000" fill="none" xmlns="http://www.w3.org/2000/svg">
<g clip-path="url(#clip0)">
<rect width="4000" height="2000" fill="url(#paint0_linear)"/>
<path fill-rule="evenodd" clip-rule="evenodd" d="M4000 0L0 0L0 123C131.668 123 242.594 116.286 357.035 109.359C510.297 100.083 669.864 90.4245 894 96C1051.37 99.9147 1185.76 126.296 1315.2 151.707C1507.78 189.51 1689.41 225.166 1919.5 181.5C2320.22 105.454 2550.98 160.726 2761.92 211.248C2890.78 242.11 3012.23 271.2 3160.5 267.5C3373.1 262.195 3528.79 219.938 3666.79 182.481C3782.59 151.05 3885.93 123 4000 123V0ZM378.886 423.39C537.007 361.208 692.652 300 901 300C1109.35 300 1264.99 361.208 1423.11 423.39L1423.12 423.391C1566.62 479.825 1712.17 537.061 1901 550.071C2099.24 563.73 2227.65 536.037 2369.76 505.388C2508.14 475.544 2659.51 442.898 2901 442.898C3169.61 442.898 3322.15 477.092 3457.73 507.48C3590.67 537.279 3707.28 563.418 3901 550.071C3935.35 547.705 3968.27 543.875 4000 538.852V689C3722.39 689 3438.35 675.32 3134.99 660.71L3134.99 660.71C2787.07 643.953 2413.73 625.973 1995.5 626C1578.38 626.027 1204.29 644.071 856.664 660.839L856.661 660.839C554.769 675.401 272.834 689 0 689L0 538.852C142.717 516.265 261.483 469.559 378.885 423.391L378.886 423.39ZM952.519 887.999L952.518 887.998C645.415 871.301 345.617 855 0 855L0 991C90.5 991 176.5 964 176.5 964C210.981 993.269 250.739 1032.02 295.896 1076.03L295.897 1076.03C508.643 1283.37 841.228 1607.5 1306.5 1607.5C2249 1607.5 2195 1045 2195 1045L3195.3 1015.07C3032.94 1142.93 2825.45 1236.35 2624.43 1326.85C2252.11 1494.49 1902 1652.12 1902 2000H2098C2098 1695.75 2413.76 1558.24 2751.28 1411.26C2996.32 1304.54 3252.83 1192.84 3408.31 1008.7L4000 991V855C3707.28 855 3420.9 870.22 3118.13 886.312L3118.12 886.312L3118.12 886.312C2778.56 904.358 2418.38 923.5 2005.5 923.5C1605.46 923.5 1274.96 905.53 952.519 887.999ZM1912 1147C1757.5 921.209 349.5 964 349.5 964C462.5 1098.83 836 1435.42 1175 1460C1706 1498.5 2066.5 1372.79 1912 1147ZM4001 1999H3085C3085 1871.22 3219.29 1819.53 3360.19 1765.3C3441.64 1733.95 3525.3 1701.74 3586.5 1653.5C3648.27 1604.8 3686.6 1539.35 3723.44 1476.41C3785.37 1370.65 3843.12 1272 4001 1272L4001 1999ZM1156.5 1999L0 1999L0 1272C191.164 1272 478.212 1380.71 527.5 1582C556.509 1700.47 706.743 1743.17 853.102 1784.77C1006.94 1828.49 1156.5 1870.99 1156.5 1999Z" fill="url(#paint1_linear)" style="mix-blend-mode:overlay"/>
<g style="mix-blend-mode:overlay" opacity="0.9">
<path fill-rule="evenodd" clip-rule="evenodd" d="M4000 0H0V1107.8C182.142 1099.81 314.132 1029.89 448.696 958.6C597.751 879.637 749.966 799 977 799C1196.09 799 1342.1 878.612 1486.02 957.089L1486.03 957.09C1623.59 1032.1 1759.24 1106.07 1955 1108.5C2160.9 1111.06 2303.3 1035.63 2448.7 958.6C2597.75 879.637 2749.97 799 2977 799C3196.09 799 3342.1 878.612 3486.03 957.089C3623.58 1032.1 3759.24 1106.07 3955 1108.5C3970.34 1108.69 3985.33 1108.45 4000 1107.8V0Z" fill="url(#paint2_linear)"/>
</g>
<path d="M2176.94 1134.18L1927.89 1200.92C1995.81 1182.72 1976.38 1139.39 2017.64 1128.33C2036.78 1123.21 2043.37 1133.8 2043.37 1133.8C2043.37 1133.8 2043.79 1121.33 2062.92 1116.2C2104.19 1105.14 2109.02 1152.38 2176.94 1134.18Z" fill="#C1001C"/>
<path d="M1927.89 1200.92C1927.89 1200.92 1927.89 1200.92 1927.89 1200.92C1934.59 1225.93 1995.78 1231.26 2064.56 1212.83C2133.33 1194.41 2183.65 1159.19 2176.95 1134.18C2176.95 1134.18 2176.95 1134.18 2176.95 1134.18L1927.89 1200.92Z" fill="#980016"/>
<path fill-rule="evenodd" clip-rule="evenodd" d="M1947.46 928.321C1967.5 1003.14 1928.33 1078.64 1859.96 1096.96C1791.59 1115.28 1719.91 1069.48 1699.86 994.664C1696.76 983.075 1695.07 971.47 1694.7 960.064C1670.03 968.351 1633.75 972.155 1616.4 944.075C1628.92 944.589 1648.12 943.813 1666.75 939.99C1660.73 936.538 1655.39 931.596 1651.18 924.768C1663.03 925.256 1680.88 924.584 1698.56 921.263C1709.41 875.595 1741.95 838.197 1787.36 826.028C1855.73 807.708 1927.41 853.506 1947.46 928.321Z" fill="#980016"/>
<path fill-rule="evenodd" clip-rule="evenodd" d="M1857.88 1089.21C1913.44 1074.33 1945 1012.01 1928.39 950.02C1923.35 931.198 1914.45 914.57 1902.93 900.957C1872.53 888.069 1840.24 884.664 1809 893.035C1773.22 902.623 1743.98 926.274 1723.35 958.807C1721.97 973.391 1723.14 988.667 1727.22 1003.92C1743.83 1065.91 1802.33 1104.1 1857.88 1089.21Z" fill="white"/>
<path d="M1779.86 939.934C1789.35 930.341 1801.74 924.152 1815.1 922.329C1828.47 920.506 1842.06 923.151 1853.77 929.853C1865.48 936.555 1874.65 946.939 1879.86 959.39C1885.06 971.841 1886.01 985.663 1882.55 998.707C1879.1 1011.75 1871.43 1023.29 1860.75 1031.52C1850.06 1039.76 1836.95 1044.23 1823.46 1044.24C1809.97 1044.26 1796.86 1039.81 1786.15 1031.6C1775.44 1023.39 1767.75 1011.87 1764.25 998.836L1823.38 983.005L1779.86 939.934Z" fill="#32002B"/>
<path fill-rule="evenodd" clip-rule="evenodd" d="M2009.83 911.609C2029.88 986.424 2101.55 1032.22 2169.93 1013.9C2238.3 995.582 2277.47 920.081 2257.43 845.266C2254.32 833.676 2249.98 822.783 2244.6 812.716C2270.11 807.558 2303.43 792.713 2304.41 759.721C2293.83 766.424 2276.8 775.357 2258.76 781.358C2262.25 775.36 2264.4 768.412 2264.63 760.391C2254.62 766.738 2238.82 775.084 2221.85 781.047C2189.62 746.925 2142.74 730.805 2097.33 742.974C2028.96 761.294 1989.78 836.794 2009.83 911.609Z" fill="#980016"/>
<path fill-rule="evenodd" clip-rule="evenodd" d="M2167.84 1006.16C2112.28 1021.05 2053.79 982.861 2037.18 920.871C2031.76 900.663 2031.47 880.419 2035.45 861.795C2056.48 837.388 2083.3 819.532 2114.64 811.133C2147.08 802.441 2180.39 804.942 2211.73 816.555C2223.8 830.414 2233.14 847.519 2238.35 866.968C2254.96 928.957 2223.39 991.276 2167.84 1006.16Z" fill="white"/>
<path d="M2089.82 856.88C2099.31 847.287 2111.7 841.099 2125.06 839.276C2138.43 837.453 2152.02 840.098 2163.73 846.799C2175.44 853.501 2184.61 863.885 2189.82 876.336C2195.02 888.787 2195.97 902.609 2192.51 915.653C2189.06 928.697 2181.39 940.232 2170.71 948.467C2160.02 956.701 2146.91 961.173 2133.42 961.188C2119.93 961.203 2106.82 956.759 2096.11 948.548C2085.4 940.337 2077.71 928.818 2074.21 915.782L2133.34 899.951L2089.82 856.88Z" fill="#32002B"/>
</g>
<defs>
<linearGradient id="paint0_linear" x1="1858.5" y1="2.28899e-05" x2="1858.5" y2="2024.16" gradientUnits="userSpaceOnUse">
<stop stop-color="#FFB26B"/>
<stop offset="1" stop-color="#FF0044"/>
</linearGradient>
<linearGradient id="paint1_linear" x1="2000.5" y1="0" x2="2000.5" y2="2000" gradientUnits="userSpaceOnUse">
<stop offset="0.488938" stop-opacity="0.26"/>
<stop offset="1" stop-opacity="0.5"/>
</linearGradient>
<linearGradient id="paint2_linear" x1="1959.5" y1="1977" x2="1959.5" y2="-0.000117838" gradientUnits="userSpaceOnUse">
<stop stop-color="white"/>
<stop offset="1" stop-color="white" stop-opacity="0"/>
</linearGradient>
<clipPath id="clip0">
<rect width="4000" height="2000" fill="white"/>
</clipPath>
</defs>
</svg>
